<?xml version="1.0" encoding="UTF-8" standalone="no"?>
<!-- Created with Inkscape (http://www.inkscape.org/) -->

<svg
   width="210mm"
   height="297mm"
   viewBox="0 0 210 297"
   version="1.1"
   id="svg137"
   inkscape:version="1.1 (c68e22c387, 2021-05-23)"
   sodipodi:docname="Logo.svg"
   xmlns:inkscape="http://www.inkscape.org/namespaces/inkscape"
   xmlns:sodipodi="http://sodipodi.sourceforge.net/DTD/sodipodi-0.dtd"
   xmlns="http://www.w3.org/2000/svg"
   xmlns:svg="http://www.w3.org/2000/svg">
  <sodipodi:namedview
     id="namedview139"
     pagecolor="#ffffff"
     bordercolor="#666666"
     borderopacity="1.0"
     inkscape:pageshadow="2"
     inkscape:pageopacity="0.0"
     inkscape:pagecheckerboard="0"
     inkscape:document-units="mm"
     showgrid="false"
     inkscape:zoom="0.53039953"
     inkscape:cx="16.025655"
     inkscape:cy="144.2309"
     inkscape:window-width="1920"
     inkscape:window-height="1027"
     inkscape:window-x="-8"
     inkscape:window-y="-8"
     inkscape:window-maximized="1"
     inkscape:current-layer="layer1" />
  <defs
     id="defs134" />
  <g
     inkscape:label="Layer 1"
     inkscape:groupmode="layer"
     id="layer1">
    <path
       d="m 76.618641,50.162676 c -1.400115,0.229895 -3.051198,0.883282 -3.936177,1.548768 l -0.38305,0.290395 -0.145295,-0.399293 c -0.07925,-0.229896 -0.343425,-0.520287 -0.607598,-0.689684 -0.383051,-0.241996 -0.567972,-0.278294 -1.109527,-0.217795 -0.752892,0.0726 -2.100175,0.629185 -3.024779,1.246273 l -0.673642,0.43559 -1.875628,-0.145199 c -2.298304,-0.169393 -6.855288,-0.169393 -8.902628,-0.01211 -3.513496,0.278294 -7.568556,0.859081 -10.434836,1.500366 -2.19263,0.49609 -1.98129,0.49609 -1.98129,0.0484 0,-0.302492 -0.0396,-0.35089 -0.13209,-0.217795 -0.066,0.0968 -0.13208,0.290395 -0.13208,0.42349 0,0.193598 -0.13209,0.290395 -0.56798,0.387192 -0.52834,0.133099 -0.56797,0.120999 -0.95102,-0.217795 -0.26417,-0.229892 -0.54155,-0.350891 -0.79252,-0.350891 h -0.39626 l 0.46231,0.217796 c 0.84535,0.387191 0.68684,0.532388 -1.10953,1.016377 -2.15301,0.592887 -2.78703,0.871181 -2.98516,1.318872 -0.38305,0.834884 0.3038,2.540945 1.43975,3.557325 0.60759,0.544489 0.64722,0.641286 0.80572,1.476165 0.0793,0.49609 0.13209,0.931681 0.0925,0.955882 -0.0264,0.0363 -0.317,0 -0.63401,-0.0605 -0.93781,-0.205695 -1.04349,-0.133099 -0.18492,0.108897 0.72647,0.217796 0.83214,0.278295 1.09632,0.786485 0.1585,0.302492 0.29059,0.568687 0.29059,0.592886 0,0.0242 -0.88498,0.350893 -1.9813,0.750184 -1.08311,0.387192 -1.95488,0.713884 -1.92846,0.738084 0.0132,0.0121 0.91139,-0.241995 1.9945,-0.568688 l 1.96809,-0.604987 0.6076,0.532389 c 0.33021,0.290394 0.93781,0.750184 1.34728,1.028478 0.63401,0.411391 0.7661,0.568688 0.83215,0.94378 0.27738,1.766562 0.36984,1.887559 1.62466,2.226352 0.83214,0.217795 0.89819,0.375092 0.31701,0.725985 -0.42268,0.254094 -0.48873,0.362992 -0.52835,0.798582 -0.0528,0.629187 0.31701,1.306772 1.13594,2.117455 1.09632,1.076877 1.55863,1.161575 2.70778,0.508189 0.43588,-0.241994 0.9246,-0.44769 1.09632,-0.44769 0.48872,0 4.715484,1.972258 6.260895,2.916037 1.558619,0.95588 3.394621,2.419948 4.490939,3.569424 0.515137,0.544488 0.951022,0.859081 1.518994,1.113176 0.501929,0.217796 1.109526,0.629187 1.66429,1.137376 1.624663,1.500367 2.707772,3.109634 5.706135,8.44562 2.100175,3.750919 2.93232,5.04559 3.513501,5.529579 0.145295,0.133099 0.277382,0.290395 0.277382,0.362995 0,0.447687 -2.654938,3.085431 -4.781531,4.743097 -1.968089,1.54876 -5.428754,3.85982 -9.232844,6.17087 -2.91911,1.77866 -3.830508,2.39574 -4.583399,3.12173 -1.228412,1.18577 -2.179432,2.43205 -2.879492,3.77512 -0.59438,1.12528 -1.10952,2.63774 -0.93781,2.78294 0.1585,0.1452 0.71327,-0.29039 1.29445,-1.02848 0.31701,-0.39929 0.62081,-0.72598 0.66043,-0.72598 0.0396,-0.0121 0.13209,0.87118 0.22455,1.94806 0.0793,1.08897 0.23775,2.25054 0.34342,2.58934 0.23776,0.67759 0.713268,1.33097 0.871774,1.17368 0.06604,-0.0484 0.132088,-1.02848 0.158503,-2.15376 0.05283,-2.35945 0.250965,-3.02493 1.017066,-3.38793 l 0.409467,-0.19359 0.250966,0.52028 c 0.118878,0.2904 0.422677,1.17368 0.660431,1.97226 0.501929,1.64557 0.68685,2.05696 1.08311,2.25056 0.528346,0.25409 0.58118,-0.0121 0.317007,-1.48827 -0.356633,-1.87546 -0.330216,-2.95234 0.09246,-3.69042 0.264172,-0.49609 0.38305,-0.59289 0.792518,-0.65339 0.713267,-0.0968 1.017066,-0.33879 1.888837,-1.45197 0.832145,-1.06478 1.3737,-1.47617 2.166218,-1.68186 0.700059,-0.1815 2.364348,-0.1452 3.962595,0.0726 0.766101,0.1089 1.862418,0.20569 2.417182,0.20569 0.567971,0.0121 1.030275,0.0363 1.030275,0.0605 0,0.1452 -0.422677,0.68969 -1.083109,1.41567 -1.030275,1.10108 -1.320865,1.57297 -1.888837,3.02494 -1.902046,4.7915 -2.100175,8.80861 -0.541555,10.98656 l 0.409468,0.58079 0.03963,-0.41139 c 0.02642,-0.2299 -0.05284,-1.02848 -0.158504,-1.76656 -0.118878,-0.75019 -0.211338,-1.48827 -0.211338,-1.66976 0,-0.3146 0,-0.3146 0.277381,-0.0847 0.158504,0.12099 0.700058,0.75018 1.215195,1.37937 1.043484,1.29467 1.783168,2.05695 2.020924,2.05695 0.09246,0 0.211338,-0.12099 0.250964,-0.25409 0.09246,-0.2662 0,-0.41139 -1.241613,-1.85126 -0.501928,-0.59289 -0.990648,-1.51247 -0.87177,-1.62137 0.09246,-0.0847 1.26803,0.53239 2.443599,1.30678 2.007715,1.29467 2.285096,1.45196 2.668149,1.45196 0.634014,0 0.594389,-0.26619 -0.158507,-0.84698 -1.65108,-1.25837 -2.985153,-2.58935 -3.407829,-3.38793 -0.515138,-0.95588 -0.818937,-2.19005 -0.818937,-3.33953 0,-1.20997 0.132087,-1.48826 1.043483,-2.02065 0.898188,-0.52029 1.215196,-0.54449 1.86242,-0.1936 0.898186,0.50819 1.109527,1.02848 0.845353,1.99646 -0.211338,0.72598 -0.198129,1.39147 0.01321,1.46407 0.145297,0.0363 1.400115,-1.74237 1.717124,-2.43205 0.250966,-0.55659 0.250966,-1.71816 -0.01322,-2.63774 -0.303799,-1.07688 -0.224546,-1.31887 0.488721,-1.64557 0.713267,-0.31459 2.654937,-0.56869 3.645588,-0.45979 0.884979,0.0968 1.585037,0.31459 3.539916,1.10108 1.836001,0.73808 2.813443,0.95588 3.80409,0.84698 l 0.700058,-0.0847 0.594389,0.65338 c 1.849211,1.99646 3.711632,4.7189 5.40234,7.90114 1.307656,2.45624 2.073757,4.11391 3.896549,8.45772 1.347281,3.21853 1.743543,4.00501 2.047342,4.00501 0.09246,0 0.330215,-0.24199 0.528346,-0.53239 0.620804,-0.99218 0.85856,-0.67758 0.449092,0.59289 -0.515136,1.57297 0.05283,2.69824 3.751258,7.50184 1.32086,1.70606 1.70391,2.40785 2.40397,4.4164 0.77931,2.26265 2.00772,4.58581 3.97581,7.53815 0.50192,0.73808 0.91139,1.42776 0.91139,1.52457 0,0.29038 -1.08311,1.20997 -1.91525,1.59716 -0.43589,0.21779 -1.83601,0.75018 -3.10403,1.19787 -2.39077,0.84699 -4.76833,1.87546 -6.274113,2.72244 -0.475511,0.2662 -1.386905,0.72599 -2.034129,1.01639 -0.647227,0.30249 -1.188778,0.61708 -1.228406,0.70178 -0.03963,0.12099 -0.03963,2.19005 0.02643,3.94451 0,0.0847 0.158503,0.2178 0.369843,0.2904 0.198127,0.0847 0.475511,0.27829 0.634014,0.44769 0.27738,0.30249 0.27738,0.30249 0.85856,0.0968 0.330218,-0.1089 0.871773,-0.2057 1.228407,-0.2057 0.356633,0 0.871769,-0.0605 1.162359,-0.1452 0.634015,-0.1694 1.598245,-0.93168 1.822795,-1.42777 0.0925,-0.21779 0.25096,-0.36299 0.38305,-0.35089 0.51514,0.0484 0.80573,-0.0363 1.16236,-0.30249 0.3038,-0.2299 0.43588,-0.2662 0.70006,-0.1694 0.18492,0.0726 0.75289,0.13309 1.25482,0.13309 1.63787,0.0121 3.17007,-0.68968 5.29667,-2.38364 0.66043,-0.54449 1.58504,-1.18578 2.04734,-1.42777 0.83214,-0.44769 0.85856,-0.45979 2.24547,-0.45979 1.62466,0 1.96809,0.0847 3.2097,0.81068 l 0.9114,0.53239 -0.64723,0.55659 c -1.95488,1.65766 -3.69842,2.31104 -9.52343,3.60572 -4.87399,1.08898 -6.44582,1.54877 -6.98738,2.04485 -0.23775,0.2178 -0.4623,0.5445 -0.50193,0.71389 -0.0396,0.1815 -0.10566,0.44769 -0.14529,0.60499 -0.0264,0.1573 -0.19813,0.35089 -0.38305,0.42349 -0.42268,0.16939 -0.67364,0.91958 -0.924604,2.84344 -0.118878,0.85908 -0.3038,1.74236 -0.409472,1.98435 -0.184917,0.3993 -0.184917,0.45979 0.01322,0.66549 0.277384,0.26619 1.149156,0.2904 1.783166,0.0484 0.40947,-0.15729 0.4491,-0.15729 0.58118,0.0968 0.22455,0.4114 0.62081,0.363 1.90205,-0.21779 0.66043,-0.30249 1.2284,-0.55659 1.25482,-0.55659 0.0396,0 0.10567,0.1936 0.1585,0.42349 0.0792,0.41139 0.51514,0.83488 0.72648,0.71389 0.0528,-0.0242 0.40947,-0.1089 0.79252,-0.1694 1.01706,-0.1815 1.20199,-0.38719 1.09632,-1.17368 l -0.0793,-0.64128 0.44909,-0.1694 c 0.25096,-0.0968 1.0699,-0.24199 1.82279,-0.30249 1.69071,-0.1694 2.25868,-0.42349 3.61917,-1.69397 0.79252,-0.73808 1.26803,-1.06477 2.2851,-1.54876 1.62466,-0.77438 2.52285,-1.06478 5.82501,-1.89966 2.78703,-0.70179 4.2664,-1.18578 5.37592,-1.74236 0.84536,-0.41139 1.18878,-1.04058 1.38691,-2.43205 0.19813,-1.54877 0.26417,-1.58507 2.43039,-1.57297 2.81344,0.0242 3.24933,-0.26619 3.24933,-2.10535 v -1.02848 l 0.70005,-0.242 c 1.03028,-0.37509 2.37756,-0.70178 3.85693,-0.94378 2.00772,-0.33879 6.74962,-0.30249 9.28568,0.0605 5.78539,0.81069 10.28953,2.60144 13.11619,5.20289 2.17942,1.99646 3.02478,4.04131 2.74739,6.59436 -0.13208,1.18577 -0.72647,2.95234 -1.30766,3.89612 -1.26802,2.00855 -4.14751,3.29113 -8.84979,3.92031 -2.97194,0.3993 -4.7419,0.48399 -13.56528,0.66549 -11.05563,0.22989 -14.75405,0.50819 -18.37322,1.39147 -10.22349,2.50465 -18.95441,8.02213 -24.079365,15.23356 -2.232264,3.13384 -3.764466,6.82426 -3.658798,8.83282 l 0.03963,0.76228 0.990647,-1.54876 c 2.285094,-3.60573 4.226767,-5.96518 6.934536,-8.45772 2.98516,-2.74665 5.82502,-4.6826 9.37814,-6.36446 5.70614,-2.72244 11.63682,-4.05341 19.00725,-4.29541 2.6021,-0.0847 5.13816,0.0363 9.65552,0.44769 3.50029,0.31459 9.57627,0.37509 11.82173,0.121 5.3363,-0.60499 8.75734,-1.50037 11.92742,-3.12173 3.94938,-2.02066 6.44581,-4.8036 7.38363,-8.21573 0.38305,-1.41567 0.40947,-3.96871 0.0528,-5.46908 -1.28129,-5.46909 -5.48163,-10.57518 -12.79923,-15.54818 -0.56797,-0.38718 -1.00385,-0.77437 -0.97744,-0.84698 0.0264,-0.0847 0.34343,-0.15729 0.70006,-0.18149 0.35664,-0.0242 0.68685,-0.0847 0.7529,-0.1331 0.18492,-0.16939 -0.36985,-0.44769 -1.22841,-0.60498 -1.03027,-0.1815 -2.04734,-0.59289 -2.54927,-1.02848 -0.48871,-0.44769 -0.79251,-1.05268 -1.0699,-2.19005 -0.29059,-1.17368 -0.60759,-1.76657 -1.13594,-2.14166 -0.39626,-0.2783 -0.40947,-0.31459 -0.71327,-2.57724 -3.11726,-22.42083 -8.63847,-36.05724 -19.3639,-47.854481 -1.94167,-2.129554 -6.65716,-6.424961 -8.18936,-7.453442 -0.68685,-0.471889 -2.23226,-1.476166 -3.43424,-2.226352 -4.43811,-2.807139 -5.9571,-3.968714 -6.15524,-4.658399 -0.066,-0.254095 -0.0132,-0.387192 0.2906,-0.677586 0.19812,-0.193596 0.317,-0.387192 0.26417,-0.435591 -0.0528,-0.0484 -0.88498,-0.133097 -1.836,-0.169396 -2.54927,-0.108898 -3.27575,-0.411391 -4.41169,-1.802861 -1.09632,-1.355172 -3.03799,-2.770841 -5.12496,-3.726721 -2.10017,-0.955879 -5.177784,-1.766562 -7.317585,-1.923859 l -1.122738,-0.0726 -1.518993,-1.234174 c -3.143659,-2.540945 -7.106251,-6.473361 -8.730917,-8.687612 -0.845354,-1.137379 -0.990647,-1.609268 -0.515135,-1.681867 0.184917,-0.02421 -0.132087,-0.229892 -1.069901,-0.701785 -1.122738,-0.556585 -1.320865,-0.701784 -1.268031,-0.907479 0.515136,-1.984359 0.634014,-2.734542 0.58118,-4.005013 -0.05284,-1.222075 -0.09246,-1.42777 -0.475511,-2.141655 -0.528346,-0.967979 -1.347282,-1.669763 -2.390767,-2.032758 -0.84535,-0.290391 -2.72098,-0.399289 -3.790881,-0.229895 z"
       id="path155"
       style="fill:#000000;stroke:none;stroke-width:0.0126421" />
    <circle
       id="path609"
       style="fill:#000000;stroke:#000000;stroke-width:0.264583"
       cx="214.00142"
       cy="43.897728"
       r="0.066444702" />
    <circle
       id="path611"
       style="fill:#000000;stroke:#000000;stroke-width:0.264583"
       cx="214.00142"
       cy="43.897728"
       r="0.066444702" />
    <rect
       style="fill:#000000;fill-rule:evenodd;stroke-width:0.187087"
       id="rect635"
       width="158.13158"
       height="1.4964981"
       x="24.941891"
       y="34.918644" />
    <rect
       style="fill:#000000;fill-rule:evenodd;stroke-width:0.285782"
       id="rect637"
       width="3.4918628"
       height="177.08742"
       x="179.5816"
       y="36.415142" />
    <rect
       style="fill:#000000;fill-rule:evenodd;stroke-width:0.316237"
       id="rect639"
       width="164.61647"
       height="4.988378"
       x="18.456999"
       y="208.51419" />
    <rect
       style="fill:#000000;fill-rule:evenodd;stroke-width:0.374177"
       id="rect643"
       width="8.9790802"
       height="123.71177"
       x="18.456999"
       y="86.298935" />
  </g>
</svg>
