  0
SECTION
  2
HEADER
  9
$ACADVER
  1
AC1014
  9
$HANDSEED
  5
FFFF
  9
$MEASUREMENT
 70
     1
  0
ENDSEC
  0
SECTION
  2
TABLES
  0
TABLE
  2
VPORT
  5
8
330
0
100
AcDbSymbolTable
 70
     4
  0
VPORT
  5
2E
330
8
100
AcDbSymbolTableRecord
100
AcDbViewportTableRecord
  2
*ACTIVE
 70
     0
 10
0.0
 20
0.0
 11
1.0
 21
1.0
 12
210.0
 22
148.5
 13
0.0
 23
0.0
 14
10.0
 24
10.0
 15
10.0
 25
10.0
 16
0.0
 26
0.0
 36
1.0
 17
0.0
 27
0.0
 37
0.0
 40
341.0
 41
1.24
 42
50.0
 43
0.0
 44
0.0
 50
0.0
 51
0.0
 71
     0
 72
   100
 73
     1
 74
     3
 75
     0
 76
     0
 77
     0
 78
     0
  0
ENDTAB
  0
TABLE
  2
LTYPE
  5
5
330
0
100
AcDbSymbolTable
 70
     1
  0
LTYPE
  5
14
330
5
100
AcDbSymbolTableRecord
100
AcDbLinetypeTableRecord
  2
BYBLOCK
 70
     0
  3

 72
    65
 73
     0
 40
0.0
  0
LTYPE
  5
15
330
5
100
AcDbSymbolTableRecord
100
AcDbLinetypeTableRecord
  2
BYLAYER
 70
     0
  3

 72
    65
 73
     0
 40
0.0
  0
LTYPE
  5
16
330
5
100
AcDbSymbolTableRecord
100
AcDbLinetypeTableRecord
  2
CONTINUOUS
 70
     0
  3
Solid line
 72
    65
 73
     0
 40
0.0
  0
ENDTAB
  0
TABLE
  2
LAYER
  5
2
100
AcDbSymbolTable
 70
2
  0
LAYER
  5
50
100
AcDbSymbolTableRecord
100
AcDbLayerTableRecord
  2
0
 70
0
  6
CONTINUOUS
  0
LAYER
  5
51
100
AcDbSymbolTableRecord
100
AcDbLayerTableRecord
  2
Layer_1
 70
0
  6
CONTINUOUS
  0
ENDTAB
  0
TABLE
  2
STYLE
  5
3
330
0
100
AcDbSymbolTable
 70
     1
  0
STYLE
  5
11
330
3
100
AcDbSymbolTableRecord
100
AcDbTextStyleTableRecord
  2
STANDARD
 70
     0
 40
0.0
 41
1.0
 50
0.0
 71
     0
 42
2.5
  3
txt
  4

  0
ENDTAB
  0
TABLE
  2
VIEW
  5
6
330
0
100
AcDbSymbolTable
 70
     0
  0
ENDTAB
  0
TABLE
  2
UCS
  5
7
330
0
100
AcDbSymbolTable
 70
     0
  0
ENDTAB
  0
TABLE
  2
APPID
  5
9
330
0
100
AcDbSymbolTable
 70
     2
  0
APPID
  5
12
330
9
100
AcDbSymbolTableRecord
100
AcDbRegAppTableRecord
  2
ACAD
 70
     0
  0
ENDTAB
  0
TABLE
  2
DIMSTYLE
  5
A
330
0
100
AcDbSymbolTable
 70
     1
  0
DIMSTYLE
105
27
330
A
100
AcDbSymbolTableRecord
100
AcDbDimStyleTableRecord
  2
ISO-25
 70
     0
  3

  4

  5

  6

  7

 40
1.0
 41
2.5
 42
0.625
 43
3.75
 44
1.25
 45
0.0
 46
0.0
 47
0.0
 48
0.0
140
2.5
141
2.5
142
0.0
143
0.03937007874016
144
1.0
145
0.0
146
1.0
147
0.625
 71
     0
 72
     0
 73
     0
 74
     0
 75
     0
 76
     0
 77
     1
 78
     8
170
     0
171
     3
172
     1
173
     0
174
     0
175
     0
176
     0
177
     0
178
     0
270
     2
271
     2
272
     2
273
     2
274
     3
340
11
275
     0
280
     0
281
     0
282
     0
283
     0
284
     8
285
     0
286
     0
287
     3
288
     0
  0
ENDTAB
  0
TABLE
  2
BLOCK_RECORD
  5
1
330
0
100
AcDbSymbolTable
 70
     1
  0
BLOCK_RECORD
  5
1F
330
1
100
AcDbSymbolTableRecord
100
AcDbBlockTableRecord
  2
*MODEL_SPACE
  0
BLOCK_RECORD
  5
1B
330
1
100
AcDbSymbolTableRecord
100
AcDbBlockTableRecord
  2
*PAPER_SPACE
  0
ENDTAB
  0
ENDSEC
  0
SECTION
  2
BLOCKS
  0
BLOCK
  5
20
330
1F
100
AcDbEntity
  8
0
100
AcDbBlockBegin
  2
*MODEL_SPACE
 70
     0
 10
0.0
 20
0.0
 30
0.0
  3
*MODEL_SPACE
  1

  0
ENDBLK
  5
21
330
1F
100
AcDbEntity
  8
0
100
AcDbBlockEnd
  0
BLOCK
  5
1C
330
1B
100
AcDbEntity
 67
     1
  8
0
100
AcDbBlockBegin
  2
*PAPER_SPACE
  1

  0
ENDBLK
  5
1D
330
1B
100
AcDbEntity
 67
     1
  8
0
100
AcDbBlockEnd
  0
ENDSEC
  0
SECTION
  2
ENTITIES
  0
SPLINE
  5
100
100
AcDbEntity
  8
Layer_1
 62
7
100
AcDbSpline
 70
8
 71
3
 72
8
 73
4
 74
0
 40
0
 40
0
 40
0
 40
0
 40
1
 40
1
 40
1
 40
1
 10
217.186699
 20
699.696351
 30
0.0
 10
213.217869
 20
699.044681
 30
0.0
 10
208.537634
 20
697.192560
 30
0.0
 10
206.029032
 20
695.306143
 30
0.0
  0
SPLINE
  5
101
100
AcDbEntity
  8
Layer_1
 62
7
100
AcDbSpline
 70
8
 71
3
 72
8
 73
4
 74
0
 40
0
 40
0
 40
0
 40
0
 40
1
 40
1
 40
1
 40
1
 10
204.531361
 20
695.614830
 30
0.0
 10
204.306715
 20
696.266504
 30
0.0
 10
203.557873
 20
697.089660
 30
0.0
 10
202.809036
 20
697.569840
 30
0.0
  0
SPLINE
  5
102
100
AcDbEntity
  8
Layer_1
 62
7
100
AcDbSpline
 70
8
 71
3
 72
8
 73
4
 74
0
 40
0
 40
0
 40
0
 40
0
 40
1
 40
1
 40
1
 40
1
 10
202.809036
 20
697.569840
 30
0.0
 10
201.723222
 20
698.255813
 30
0.0
 10
201.199037
 20
698.358705
 30
0.0
 10
199.663920
 20
698.187212
 30
0.0
  0
SPLINE
  5
103
100
AcDbEntity
  8
Layer_1
 62
7
100
AcDbSpline
 70
8
 71
3
 72
8
 73
4
 74
0
 40
0
 40
0
 40
0
 40
0
 40
1
 40
1
 40
1
 40
1
 10
199.663920
 20
698.187212
 30
0.0
 10
197.529738
 20
697.981416
 30
0.0
 10
193.710668
 20
696.403695
 30
0.0
 10
191.089743
 20
694.654469
 30
0.0
  0
LWPOLYLINE
  5
104
100
AcDbEntity
  8
Layer_1
 62
7
100
AcDbPolyline
 90
3
 70
0
 10
206.029032
 20
695.306143
 30
0.0
 10
204.943221
 20
694.482976
 30
0.0
 10
204.531361
 20
695.614830
 30
0.0
  0
SPLINE
  5
105
100
AcDbEntity
  8
Layer_1
 62
7
100
AcDbSpline
 70
8
 71
3
 72
8
 73
4
 74
0
 40
0
 40
0
 40
0
 40
0
 40
1
 40
1
 40
1
 40
1
 10
183.863466
 20
693.831314
 30
0.0
 10
177.348589
 20
694.311483
 30
0.0
 10
164.431154
 20
694.311483
 30
0.0
 10
158.627670
 20
693.865641
 30
0.0
  0
SPLINE
  5
106
100
AcDbEntity
  8
Layer_1
 62
7
100
AcDbSpline
 70
8
 71
3
 72
8
 73
4
 74
0
 40
0
 40
0
 40
0
 40
0
 40
1
 40
1
 40
1
 40
1
 10
158.627670
 20
693.865641
 30
0.0
 10
148.668154
 20
693.076776
 30
0.0
 10
137.173496
 20
691.430451
 30
0.0
 10
129.048608
 20
689.612635
 30
0.0
  0
SPLINE
  5
107
100
AcDbEntity
  8
Layer_1
 62
7
100
AcDbSpline
 70
8
 71
3
 72
8
 73
4
 74
0
 40
0
 40
0
 40
0
 40
0
 40
1
 40
1
 40
1
 40
1
 10
129.048608
 20
689.612635
 30
0.0
 10
122.833278
 20
688.206396
 30
0.0
 10
123.432352
 20
688.206396
 30
0.0
 10
123.432352
 20
689.475438
 30
0.0
  0
SPLINE
  5
108
100
AcDbEntity
  8
Layer_1
 62
7
100
AcDbSpline
 70
8
 71
3
 72
8
 73
4
 74
0
 40
0
 40
0
 40
0
 40
0
 40
1
 40
1
 40
1
 40
1
 10
123.432352
 20
689.475438
 30
0.0
 10
123.432352
 20
690.332896
 30
0.0
 10
123.320100
 20
690.470087
 30
0.0
 10
123.057924
 20
690.092810
 30
0.0
  0
SPLINE
  5
109
100
AcDbEntity
  8
Layer_1
 62
7
100
AcDbSpline
 70
8
 71
3
 72
8
 73
4
 74
0
 40
0
 40
0
 40
0
 40
0
 40
1
 40
1
 40
1
 40
1
 10
123.057924
 20
690.092810
 30
0.0
 10
122.870837
 20
689.818416
 30
0.0
 10
122.683524
 20
689.269643
 30
0.0
 10
122.683524
 20
688.892366
 30
0.0
  0
SPLINE
  5
10a
100
AcDbEntity
  8
Layer_1
 62
7
100
AcDbSpline
 70
8
 71
3
 72
8
 73
4
 74
0
 40
0
 40
0
 40
0
 40
0
 40
1
 40
1
 40
1
 40
1
 10
122.683524
 20
688.892366
 30
0.0
 10
122.683524
 20
688.343584
 30
0.0
 10
122.309096
 20
688.069199
 30
0.0
 10
121.073502
 20
687.794814
 30
0.0
  0
SPLINE
  5
10b
100
AcDbEntity
  8
Layer_1
 62
7
100
AcDbSpline
 70
8
 71
3
 72
8
 73
4
 74
0
 40
0
 40
0
 40
0
 40
0
 40
1
 40
1
 40
1
 40
1
 10
121.073502
 20
687.794814
 30
0.0
 10
119.575845
 20
687.417525
 30
0.0
 10
119.463508
 20
687.451825
 30
0.0
 10
118.377697
 20
688.412186
 30
0.0
  0
SPLINE
  5
10c
100
AcDbEntity
  8
Layer_1
 62
7
100
AcDbSpline
 70
8
 71
3
 72
8
 73
4
 74
0
 40
0
 40
0
 40
0
 40
0
 40
1
 40
1
 40
1
 40
1
 10
118.377697
 20
688.412186
 30
0.0
 10
117.628869
 20
689.063848
 30
0.0
 10
116.842595
 20
689.406837
 30
0.0
 10
116.131184
 20
689.406837
 30
0.0
  0
LWPOLYLINE
  5
10d
100
AcDbEntity
  8
Layer_1
 62
7
100
AcDbPolyline
 90
3
 70
0
 10
191.089743
 20
694.654469
 30
0.0
 10
189.180207
 20
693.419726
 30
0.0
 10
183.863466
 20
693.831314
 30
0.0
  0
SPLINE
  5
10e
100
AcDbEntity
  8
Layer_1
 62
7
100
AcDbSpline
 70
8
 71
3
 72
8
 73
4
 74
0
 40
0
 40
0
 40
0
 40
0
 40
1
 40
1
 40
1
 40
1
 10
116.318412
 20
688.789463
 30
0.0
 10
118.714680
 20
687.691913
 30
0.0
 10
118.265360
 20
687.280331
 30
0.0
 10
113.173288
 20
685.908394
 30
0.0
  0
SPLINE
  5
10f
100
AcDbEntity
  8
Layer_1
 62
7
100
AcDbSpline
 70
8
 71
3
 72
8
 73
4
 74
0
 40
0
 40
0
 40
0
 40
0
 40
1
 40
1
 40
1
 40
1
 10
113.173288
 20
685.908394
 30
0.0
 10
107.070267
 20
684.227769
 30
0.0
 10
105.273045
 20
683.438905
 30
0.0
 10
104.711417
 20
682.169859
 30
0.0
  0
SPLINE
  5
110
100
AcDbEntity
  8
Layer_1
 62
7
100
AcDbSpline
 70
8
 71
3
 72
8
 73
4
 74
0
 40
0
 40
0
 40
0
 40
0
 40
1
 40
1
 40
1
 40
1
 10
104.711417
 20
682.169859
 30
0.0
 10
103.625606
 20
679.803259
 30
0.0
 10
105.572582
 20
674.967180
 30
0.0
 10
108.792598
 20
672.086103
 30
0.0
  0
SPLINE
  5
111
100
AcDbEntity
  8
Layer_1
 62
7
100
AcDbSpline
 70
8
 71
3
 72
8
 73
4
 74
0
 40
0
 40
0
 40
0
 40
0
 40
1
 40
1
 40
1
 40
1
 10
108.792598
 20
672.086103
 30
0.0
 10
110.514900
 20
670.542670
 30
0.0
 10
110.627237
 20
670.268285
 30
0.0
 10
111.076529
 20
667.901699
 30
0.0
  0
SPLINE
  5
112
100
AcDbEntity
  8
Layer_1
 62
7
100
AcDbSpline
 70
8
 71
3
 72
8
 73
4
 74
0
 40
0
 40
0
 40
0
 40
0
 40
1
 40
1
 40
1
 40
1
 10
111.076529
 20
667.901699
 30
0.0
 10
111.301316
 20
666.495459
 30
0.0
 10
111.450957
 20
665.260713
 30
0.0
 10
111.338734
 20
665.192112
 30
0.0
  0
SPLINE
  5
113
100
AcDbEntity
  8
Layer_1
 62
7
100
AcDbSpline
 70
8
 71
3
 72
8
 73
4
 74
0
 40
0
 40
0
 40
0
 40
0
 40
1
 40
1
 40
1
 40
1
 10
111.338734
 20
665.192112
 30
0.0
 10
111.263899
 20
665.089214
 30
0.0
 10
110.440151
 20
665.192112
 30
0.0
 10
109.541540
 20
665.363608
 30
0.0
  0
SPLINE
  5
114
100
AcDbEntity
  8
Layer_1
 62
7
100
AcDbSpline
 70
8
 71
3
 72
8
 73
4
 74
0
 40
0
 40
0
 40
0
 40
0
 40
1
 40
1
 40
1
 40
1
 10
109.541540
 20
665.363608
 30
0.0
 10
106.883181
 20
665.946680
 30
0.0
 10
106.583615
 20
665.740896
 30
0.0
 10
109.017357
 20
665.054923
 30
0.0
  0
SPLINE
  5
115
100
AcDbEntity
  8
Layer_1
 62
7
100
AcDbSpline
 70
8
 71
3
 72
8
 73
4
 74
0
 40
0
 40
0
 40
0
 40
0
 40
1
 40
1
 40
1
 40
1
 10
109.017357
 20
665.054923
 30
0.0
 10
111.076642
 20
664.437549
 30
0.0
 10
111.376179
 20
664.266056
 30
0.0
 10
112.125036
 20
662.825517
 30
0.0
  0
SPLINE
  5
116
100
AcDbEntity
  8
Layer_1
 62
7
100
AcDbSpline
 70
8
 71
3
 72
8
 73
4
 74
0
 40
0
 40
0
 40
0
 40
0
 40
1
 40
1
 40
1
 40
1
 10
112.125036
 20
662.825517
 30
0.0
 10
112.574327
 20
661.968060
 30
0.0
 10
112.948756
 20
661.213491
 30
0.0
 10
112.948756
 20
661.144895
 30
0.0
  0
SPLINE
  5
117
100
AcDbEntity
  8
Layer_1
 62
7
100
AcDbSpline
 70
8
 71
3
 72
8
 73
4
 74
0
 40
0
 40
0
 40
0
 40
0
 40
1
 40
1
 40
1
 40
1
 10
112.948756
 20
661.144895
 30
0.0
 10
112.948756
 20
661.076297
 30
0.0
 10
110.440151
 20
660.150238
 30
0.0
 10
107.332472
 20
659.018390
 30
0.0
  0
SPLINE
  5
118
100
AcDbEntity
  8
Layer_1
 62
7
100
AcDbSpline
 70
8
 71
3
 72
8
 73
4
 74
0
 40
0
 40
0
 40
0
 40
0
 40
1
 40
1
 40
1
 40
1
 10
107.332472
 20
659.018390
 30
0.0
 10
104.262239
 20
657.920837
 30
0.0
 10
101.791080
 20
656.994781
 30
0.0
 10
101.865971
 20
656.926183
 30
0.0
  0
SPLINE
  5
119
100
AcDbEntity
  8
Layer_1
 62
7
100
AcDbSpline
 70
8
 71
3
 72
8
 73
4
 74
0
 40
0
 40
0
 40
0
 40
0
 40
1
 40
1
 40
1
 40
1
 10
101.865971
 20
656.926183
 30
0.0
 10
101.903389
 20
656.891884
 30
0.0
 10
104.449439
 20
657.612153
 30
0.0
 10
107.519672
 20
658.538212
 30
0.0
  0
LWPOLYLINE
  5
11a
100
AcDbEntity
  8
Layer_1
 62
7
100
AcDbPolyline
 90
3
 70
0
 10
116.131184
 20
689.406837
 30
0.0
 10
115.007927
 20
689.406837
 30
0.0
 10
116.318412
 20
688.789463
 30
0.0
  0
SPLINE
  5
11b
100
AcDbEntity
  8
Layer_1
 62
7
100
AcDbSpline
 70
8
 71
3
 72
8
 73
4
 74
0
 40
0
 40
0
 40
0
 40
0
 40
1
 40
1
 40
1
 40
1
 10
114.820841
 20
658.744002
 30
0.0
 10
115.756869
 20
657.920837
 30
0.0
 10
117.479200
 20
656.617496
 30
0.0
 10
118.639902
 20
655.828631
 30
0.0
  0
SPLINE
  5
11c
100
AcDbEntity
  8
Layer_1
 62
7
100
AcDbSpline
 70
8
 71
3
 72
8
 73
4
 74
0
 40
0
 40
0
 40
0
 40
0
 40
1
 40
1
 40
1
 40
1
 10
118.639902
 20
655.828631
 30
0.0
 10
120.437096
 20
654.662483
 30
0.0
 10
120.811524
 20
654.216602
 30
0.0
 10
120.998752
 20
653.153349
 30
0.0
  0
SPLINE
  5
11d
100
AcDbEntity
  8
Layer_1
 62
7
100
AcDbSpline
 70
8
 71
3
 72
8
 73
4
 74
0
 40
0
 40
0
 40
0
 40
0
 40
1
 40
1
 40
1
 40
1
 10
120.998752
 20
653.153349
 30
0.0
 10
121.785026
 20
648.145772
 30
0.0
 10
122.047118
 20
647.802788
 30
0.0
 10
125.604088
 20
646.842430
 30
0.0
  0
SPLINE
  5
11e
100
AcDbEntity
  8
Layer_1
 62
7
100
AcDbSpline
 70
8
 71
3
 72
8
 73
4
 74
0
 40
0
 40
0
 40
0
 40
0
 40
1
 40
1
 40
1
 40
1
 10
125.604088
 20
646.842430
 30
0.0
 10
127.962910
 20
646.225058
 30
0.0
 10
128.150138
 20
645.779177
 30
0.0
 10
126.502699
 20
644.784520
 30
0.0
  0
SPLINE
  5
11f
100
AcDbEntity
  8
Layer_1
 62
7
100
AcDbSpline
 70
8
 71
3
 72
8
 73
4
 74
0
 40
0
 40
0
 40
0
 40
0
 40
1
 40
1
 40
1
 40
1
 10
126.502699
 20
644.784520
 30
0.0
 10
125.304551
 20
644.064253
 30
0.0
 10
125.117323
 20
643.755566
 30
0.0
 10
125.005014
 20
642.520823
 30
0.0
  0
SPLINE
  5
120
100
AcDbEntity
  8
Layer_1
 62
7
100
AcDbSpline
 70
8
 71
3
 72
8
 73
4
 74
0
 40
0
 40
0
 40
0
 40
0
 40
1
 40
1
 40
1
 40
1
 10
125.005014
 20
642.520823
 30
0.0
 10
124.855345
 20
640.737300
 30
0.0
 10
125.903625
 20
638.816587
 30
0.0
 10
128.225001
 20
636.518588
 30
0.0
  0
SPLINE
  5
121
100
AcDbEntity
  8
Layer_1
 62
7
100
AcDbSpline
 70
8
 71
3
 72
8
 73
4
 74
0
 40
0
 40
0
 40
0
 40
0
 40
1
 40
1
 40
1
 40
1
 10
128.225001
 20
636.518588
 30
0.0
 10
131.332680
 20
633.466023
 30
0.0
 10
132.643165
 20
633.225934
 30
0.0
 10
135.900598
 20
635.078052
 30
0.0
  0
SPLINE
  5
122
100
AcDbEntity
  8
Layer_1
 62
7
100
AcDbSpline
 70
8
 71
3
 72
8
 73
4
 74
0
 40
0
 40
0
 40
0
 40
0
 40
1
 40
1
 40
1
 40
1
 10
135.900598
 20
635.078052
 30
0.0
 10
137.136163
 20
635.764020
 30
0.0
 10
138.521511
 20
636.347095
 30
0.0
 10
139.008277
 20
636.347095
 30
0.0
  0
SPLINE
  5
123
100
AcDbEntity
  8
Layer_1
 62
7
100
AcDbSpline
 70
8
 71
3
 72
8
 73
4
 74
0
 40
0
 40
0
 40
0
 40
0
 40
1
 40
1
 40
1
 40
1
 10
139.008277
 20
636.347095
 30
0.0
 10
140.393625
 20
636.347095
 30
0.0
 10
152.375003
 20
630.756442
 30
0.0
 10
156.755696
 20
628.081163
 30
0.0
  0
SPLINE
  5
124
100
AcDbEntity
  8
Layer_1
 62
7
100
AcDbSpline
 70
8
 71
3
 72
8
 73
4
 74
0
 40
0
 40
0
 40
0
 40
0
 40
1
 40
1
 40
1
 40
1
 10
156.755696
 20
628.081163
 30
0.0
 10
161.173828
 20
625.371582
 30
0.0
 10
166.378243
 20
621.221468
 30
0.0
 10
169.485917
 20
617.963111
 30
0.0
  0
SPLINE
  5
125
100
AcDbEntity
  8
Layer_1
 62
7
100
AcDbSpline
 70
8
 71
3
 72
8
 73
4
 74
0
 40
0
 40
0
 40
0
 40
0
 40
1
 40
1
 40
1
 40
1
 10
169.485917
 20
617.963111
 30
0.0
 10
170.946147
 20
616.419680
 30
0.0
 10
172.181727
 20
615.527921
 30
0.0
 10
173.791726
 20
614.807651
 30
0.0
  0
SPLINE
  5
126
100
AcDbEntity
  8
Layer_1
 62
7
100
AcDbSpline
 70
8
 71
3
 72
8
 73
4
 74
0
 40
0
 40
0
 40
0
 40
0
 40
1
 40
1
 40
1
 40
1
 10
173.791726
 20
614.807651
 30
0.0
 10
175.214517
 20
614.190277
 30
0.0
 10
176.936839
 20
613.024129
 30
0.0
 10
178.509399
 20
611.583593
 30
0.0
  0
SPLINE
  5
127
100
AcDbEntity
  8
Layer_1
 62
7
100
AcDbSpline
 70
8
 71
3
 72
8
 73
4
 74
0
 40
0
 40
0
 40
0
 40
0
 40
1
 40
1
 40
1
 40
1
 10
178.509399
 20
611.583593
 30
0.0
 10
183.114743
 20
607.330585
 30
0.0
 10
186.184973
 20
602.768883
 30
0.0
 10
194.684270
 20
587.643253
 30
0.0
  0
SPLINE
  5
128
100
AcDbEntity
  8
Layer_1
 62
7
100
AcDbSpline
 70
8
 71
3
 72
8
 73
4
 74
0
 40
0
 40
0
 40
0
 40
0
 40
1
 40
1
 40
1
 40
1
 10
194.684270
 20
587.643253
 30
0.0
 10
200.637522
 20
577.010727
 30
0.0
 10
202.996358
 20
573.340793
 30
0.0
 10
204.643800
 20
571.968856
 30
0.0
  0
SPLINE
  5
129
100
AcDbEntity
  8
Layer_1
 62
7
100
AcDbSpline
 70
8
 71
3
 72
8
 73
4
 74
0
 40
0
 40
0
 40
0
 40
0
 40
1
 40
1
 40
1
 40
1
 10
204.643800
 20
571.968856
 30
0.0
 10
205.055660
 20
571.591568
 30
0.0
 10
205.430080
 20
571.145689
 30
0.0
 10
205.430080
 20
570.939894
 30
0.0
  0
SPLINE
  5
12a
100
AcDbEntity
  8
Layer_1
 62
7
100
AcDbSpline
 70
8
 71
3
 72
8
 73
4
 74
0
 40
0
 40
0
 40
0
 40
0
 40
1
 40
1
 40
1
 40
1
 10
205.430080
 20
570.939894
 30
0.0
 10
205.430080
 20
569.670860
 30
0.0
 10
197.904271
 20
562.193790
 30
0.0
 10
191.876134
 20
557.494894
 30
0.0
  0
SPLINE
  5
12b
100
AcDbEntity
  8
Layer_1
 62
7
100
AcDbSpline
 70
8
 71
3
 72
8
 73
4
 74
0
 40
0
 40
0
 40
0
 40
0
 40
1
 40
1
 40
1
 40
1
 10
191.876134
 20
557.494894
 30
0.0
 10
186.297299
 20
553.104709
 30
0.0
 10
176.487540
 20
546.553672
 30
0.0
 10
165.704292
 20
540.002665
 30
0.0
  0
SPLINE
  5
12c
100
AcDbEntity
  8
Layer_1
 62
7
100
AcDbSpline
 70
8
 71
3
 72
8
 73
4
 74
0
 40
0
 40
0
 40
0
 40
0
 40
1
 40
1
 40
1
 40
1
 10
165.704292
 20
540.002665
 30
0.0
 10
157.429650
 20
534.960794
 30
0.0
 10
154.846159
 20
533.211591
 30
0.0
 10
152.711980
 20
531.153666
 30
0.0
  0
SPLINE
  5
12d
100
AcDbEntity
  8
Layer_1
 62
7
100
AcDbSpline
 70
8
 71
3
 72
8
 73
4
 74
0
 40
0
 40
0
 40
0
 40
0
 40
1
 40
1
 40
1
 40
1
 10
152.711980
 20
531.153666
 30
0.0
 10
149.229867
 20
527.792428
 30
0.0
 10
146.534063
 20
524.259666
 30
0.0
 10
144.549641
 20
520.452539
 30
0.0
  0
SPLINE
  5
12e
100
AcDbEntity
  8
Layer_1
 62
7
100
AcDbSpline
 70
8
 71
3
 72
8
 73
4
 74
0
 40
0
 40
0
 40
0
 40
0
 40
1
 40
1
 40
1
 40
1
 10
144.549641
 20
520.452539
 30
0.0
 10
142.864784
 20
517.262769
 30
0.0
 10
141.404545
 20
512.975480
 30
0.0
 10
141.891282
 20
512.563890
 30
0.0
  0
SPLINE
  5
12f
100
AcDbEntity
  8
Layer_1
 62
7
100
AcDbSpline
 70
8
 71
3
 72
8
 73
4
 74
0
 40
0
 40
0
 40
0
 40
0
 40
1
 40
1
 40
1
 40
1
 10
141.891282
 20
512.563890
 30
0.0
 10
142.340573
 20
512.152299
 30
0.0
 10
143.913149
 20
513.387043
 30
0.0
 10
145.560589
 20
515.479266
 30
0.0
  0
SPLINE
  5
130
100
AcDbEntity
  8
Layer_1
 62
7
100
AcDbSpline
 70
8
 71
3
 72
8
 73
4
 74
0
 40
0
 40
0
 40
0
 40
0
 40
1
 40
1
 40
1
 40
1
 10
145.560589
 20
515.479266
 30
0.0
 10
146.459200
 20
516.611112
 30
0.0
 10
147.320365
 20
517.537162
 30
0.0
 10
147.432674
 20
517.537162
 30
0.0
  0
SPLINE
  5
131
100
AcDbEntity
  8
Layer_1
 62
7
100
AcDbSpline
 70
8
 71
3
 72
8
 73
4
 74
0
 40
0
 40
0
 40
0
 40
0
 40
1
 40
1
 40
1
 40
1
 10
147.432674
 20
517.537162
 30
0.0
 10
147.544926
 20
517.571461
 30
0.0
 10
147.807102
 20
515.067676
 30
0.0
 10
148.069193
 20
512.015102
 30
0.0
  0
SPLINE
  5
132
100
AcDbEntity
  8
Layer_1
 62
7
100
AcDbSpline
 70
8
 71
3
 72
8
 73
4
 74
0
 40
0
 40
0
 40
0
 40
0
 40
1
 40
1
 40
1
 40
1
 10
148.069193
 20
512.015102
 30
0.0
 10
148.293981
 20
508.928258
 30
0.0
 10
148.743130
 20
505.635619
 30
0.0
 10
149.042667
 20
504.675241
 30
0.0
  0
SPLINE
  5
133
100
AcDbEntity
  8
Layer_1
 62
7
100
AcDbSpline
 70
8
 71
3
 72
8
 73
4
 74
0
 40
0
 40
0
 40
0
 40
0
 40
1
 40
1
 40
1
 40
1
 10
149.042667
 20
504.675241
 30
0.0
 10
149.716633
 20
502.754513
 30
0.0
 10
151.064529
 20
500.902413
 30
0.0
 10
151.513838
 20
501.348274
 30
0.0
  0
SPLINE
  5
134
100
AcDbEntity
  8
Layer_1
 62
7
100
AcDbSpline
 70
8
 71
3
 72
8
 73
4
 74
0
 40
0
 40
0
 40
0
 40
0
 40
1
 40
1
 40
1
 40
1
 10
151.513838
 20
501.348274
 30
0.0
 10
151.701038
 20
501.485471
 30
0.0
 10
151.888260
 20
504.263650
 30
0.0
 10
151.963138
 20
507.453420
 30
0.0
  0
SPLINE
  5
135
100
AcDbEntity
  8
Layer_1
 62
7
100
AcDbSpline
 70
8
 71
3
 72
8
 73
4
 74
0
 40
0
 40
0
 40
0
 40
0
 40
1
 40
1
 40
1
 40
1
 10
151.963138
 20
507.453420
 30
0.0
 10
152.112892
 20
514.141625
 30
0.0
 10
152.674534
 20
516.028025
 30
0.0
 10
154.846159
 20
517.057002
 30
0.0
  0
LWPOLYLINE
  5
136
100
AcDbEntity
  8
Layer_1
 62
7
100
AcDbPolyline
 90
3
 70
0
 10
107.519672
 20
658.538212
 30
0.0
 10
113.098510
 20
660.253136
 30
0.0
 10
114.820841
 20
658.744002
 30
0.0
  0
SPLINE
  5
137
100
AcDbEntity
  8
Layer_1
 62
7
100
AcDbSpline
 70
8
 71
3
 72
8
 73
4
 74
0
 40
0
 40
0
 40
0
 40
0
 40
1
 40
1
 40
1
 40
1
 10
156.718253
 20
516.130951
 30
0.0
 10
157.055230
 20
515.307770
 30
0.0
 10
157.916392
 20
512.803984
 30
0.0
 10
158.590341
 20
510.540293
 30
0.0
  0
SPLINE
  5
138
100
AcDbEntity
  8
Layer_1
 62
7
100
AcDbSpline
 70
8
 71
3
 72
8
 73
4
 74
0
 40
0
 40
0
 40
0
 40
0
 40
1
 40
1
 40
1
 40
1
 10
158.590341
 20
510.540293
 30
0.0
 10
160.013132
 20
505.875685
 30
0.0
 10
160.537317
 20
504.709540
 30
0.0
 10
161.660574
 20
504.160753
 30
0.0
  0
SPLINE
  5
139
100
AcDbEntity
  8
Layer_1
 62
7
100
AcDbSpline
 70
8
 71
3
 72
8
 73
4
 74
0
 40
0
 40
0
 40
0
 40
0
 40
1
 40
1
 40
1
 40
1
 10
161.660574
 20
504.160753
 30
0.0
 10
163.158248
 20
503.440498
 30
0.0
 10
163.308013
 20
504.195052
 30
0.0
 10
162.559176
 20
508.379471
 30
0.0
  0
SPLINE
  5
13a
100
AcDbEntity
  8
Layer_1
 62
7
100
AcDbSpline
 70
8
 71
3
 72
8
 73
4
 74
0
 40
0
 40
0
 40
0
 40
0
 40
1
 40
1
 40
1
 40
1
 10
162.559176
 20
508.379471
 30
0.0
 10
161.548248
 20
513.695735
 30
0.0
 10
161.623131
 20
516.748309
 30
0.0
 10
162.821268
 20
518.840504
 30
0.0
  0
SPLINE
  5
13b
100
AcDbEntity
  8
Layer_1
 62
7
100
AcDbSpline
 70
8
 71
3
 72
8
 73
4
 74
0
 40
0
 40
0
 40
0
 40
0
 40
1
 40
1
 40
1
 40
1
 10
162.821268
 20
518.840504
 30
0.0
 10
163.570102
 20
520.246743
 30
0.0
 10
163.907079
 20
520.521137
 30
0.0
 10
165.067775
 20
520.692633
 30
0.0
  0
SPLINE
  5
13c
100
AcDbEntity
  8
Layer_1
 62
7
100
AcDbSpline
 70
8
 71
3
 72
8
 73
4
 74
0
 40
0
 40
0
 40
0
 40
0
 40
1
 40
1
 40
1
 40
1
 10
165.067775
 20
520.692633
 30
0.0
 10
167.089635
 20
520.967027
 30
0.0
 10
167.950797
 20
521.652983
 30
0.0
 10
170.421959
 20
524.808454
 30
0.0
  0
SPLINE
  5
13d
100
AcDbEntity
  8
Layer_1
 62
7
100
AcDbSpline
 70
8
 71
3
 72
8
 73
4
 74
0
 40
0
 40
0
 40
0
 40
0
 40
1
 40
1
 40
1
 40
1
 10
170.421959
 20
524.808454
 30
0.0
 10
172.780795
 20
527.826728
 30
0.0
 10
174.315912
 20
528.992872
 30
0.0
 10
176.562420
 20
529.575931
 30
0.0
  0
SPLINE
  5
13e
100
AcDbEntity
  8
Layer_1
 62
7
100
AcDbSpline
 70
8
 71
3
 72
8
 73
4
 74
0
 40
0
 40
0
 40
0
 40
0
 40
1
 40
1
 40
1
 40
1
 10
176.562420
 20
529.575931
 30
0.0
 10
178.546839
 20
530.090419
 30
0.0
 10
183.264508
 20
529.987521
 30
0.0
 10
187.794972
 20
529.370135
 30
0.0
  0
SPLINE
  5
13f
100
AcDbEntity
  8
Layer_1
 62
7
100
AcDbSpline
 70
8
 71
3
 72
8
 73
4
 74
0
 40
0
 40
0
 40
0
 40
0
 40
1
 40
1
 40
1
 40
1
 10
187.794972
 20
529.370135
 30
0.0
 10
189.966597
 20
529.061443
 30
0.0
 10
193.074267
 20
528.787077
 30
0.0
 10
194.646827
 20
528.787077
 30
0.0
  0
SPLINE
  5
140
100
AcDbEntity
  8
Layer_1
 62
7
100
AcDbSpline
 70
8
 71
3
 72
8
 73
4
 74
0
 40
0
 40
0
 40
0
 40
0
 40
1
 40
1
 40
1
 40
1
 10
194.646827
 20
528.787077
 30
0.0
 10
196.256823
 20
528.752778
 30
0.0
 10
197.567291
 20
528.684180
 30
0.0
 10
197.567291
 20
528.615581
 30
0.0
  0
SPLINE
  5
141
100
AcDbEntity
  8
Layer_1
 62
7
100
AcDbSpline
 70
8
 71
3
 72
8
 73
4
 74
0
 40
0
 40
0
 40
0
 40
0
 40
1
 40
1
 40
1
 40
1
 10
197.567291
 20
528.615581
 30
0.0
 10
197.567291
 20
528.203991
 30
0.0
 10
196.369152
 20
526.660554
 30
0.0
 10
194.497061
 20
524.602658
 30
0.0
  0
SPLINE
  5
142
100
AcDbEntity
  8
Layer_1
 62
7
100
AcDbSpline
 70
8
 71
3
 72
8
 73
4
 74
0
 40
0
 40
0
 40
0
 40
0
 40
1
 40
1
 40
1
 40
1
 10
194.497061
 20
524.602658
 30
0.0
 10
191.576597
 20
521.481487
 30
0.0
 10
190.752877
 20
520.143846
 30
0.0
 10
189.142877
 20
516.028025
 30
0.0
  0
SPLINE
  5
143
100
AcDbEntity
  8
Layer_1
 62
7
100
AcDbSpline
 70
8
 71
3
 72
8
 73
4
 74
0
 40
0
 40
0
 40
0
 40
0
 40
1
 40
1
 40
1
 40
1
 10
189.142877
 20
516.028025
 30
0.0
 10
183.751251
 20
502.445820
 30
0.0
 10
183.189626
 20
491.058737
 30
0.0
 10
187.607761
 20
484.885020
 30
0.0
  0
LWPOLYLINE
  5
144
100
AcDbEntity
  8
Layer_1
 62
7
100
AcDbPolyline
 90
3
 70
0
 10
154.846159
 20
517.057002
 30
0.0
 10
156.006853
 20
517.605761
 30
0.0
 10
156.718253
 20
516.130951
 30
0.0
  0
SPLINE
  5
145
100
AcDbEntity
  8
Layer_1
 62
7
100
AcDbSpline
 70
8
 71
3
 72
8
 73
4
 74
0
 40
0
 40
0
 40
0
 40
0
 40
1
 40
1
 40
1
 40
1
 10
188.880795
 20
484.404831
 30
0.0
 10
188.955686
 20
485.056517
 30
0.0
 10
188.731012
 20
487.320208
 30
0.0
 10
188.431492
 20
489.412403
 30
0.0
  0
SPLINE
  5
146
100
AcDbEntity
  8
Layer_1
 62
7
100
AcDbSpline
 70
8
 71
3
 72
8
 73
4
 74
0
 40
0
 40
0
 40
0
 40
0
 40
1
 40
1
 40
1
 40
1
 10
188.431492
 20
489.412403
 30
0.0
 10
188.094515
 20
491.538926
 30
0.0
 10
187.832424
 20
493.631121
 30
0.0
 10
187.832424
 20
494.145581
 30
0.0
  0
SPLINE
  5
147
100
AcDbEntity
  8
Layer_1
 62
7
100
AcDbSpline
 70
8
 71
3
 72
8
 73
4
 74
0
 40
0
 40
0
 40
0
 40
0
 40
1
 40
1
 40
1
 40
1
 10
187.832424
 20
494.145581
 30
0.0
 10
187.832424
 20
495.037361
 30
0.0
 10
187.832424
 20
495.037361
 30
0.0
 10
188.618700
 20
494.385676
 30
0.0
  0
SPLINE
  5
148
100
AcDbEntity
  8
Layer_1
 62
7
100
AcDbSpline
 70
8
 71
3
 72
8
 73
4
 74
0
 40
0
 40
0
 40
0
 40
0
 40
1
 40
1
 40
1
 40
1
 10
188.618700
 20
494.385676
 30
0.0
 10
189.068003
 20
494.042712
 30
0.0
 10
190.603117
 20
492.259181
 30
0.0
 10
192.063348
 20
490.475650
 30
0.0
  0
SPLINE
  5
149
100
AcDbEntity
  8
Layer_1
 62
7
100
AcDbSpline
 70
8
 71
3
 72
8
 73
4
 74
0
 40
0
 40
0
 40
0
 40
0
 40
1
 40
1
 40
1
 40
1
 10
192.063348
 20
490.475650
 30
0.0
 10
195.021255
 20
486.805720
 30
0.0
 10
197.117997
 20
484.644926
 30
0.0
 10
197.791951
 20
484.644926
 30
0.0
  0
SPLINE
  5
14a
100
AcDbEntity
  8
Layer_1
 62
7
100
AcDbSpline
 70
8
 71
3
 72
8
 73
4
 74
0
 40
0
 40
0
 40
0
 40
0
 40
1
 40
1
 40
1
 40
1
 10
197.791951
 20
484.644926
 30
0.0
 10
198.054043
 20
484.644926
 30
0.0
 10
198.391020
 20
484.987890
 30
0.0
 10
198.503345
 20
485.365181
 30
0.0
  0
SPLINE
  5
14b
100
AcDbEntity
  8
Layer_1
 62
7
100
AcDbSpline
 70
8
 71
3
 72
8
 73
4
 74
0
 40
0
 40
0
 40
0
 40
0
 40
1
 40
1
 40
1
 40
1
 10
198.503345
 20
485.365181
 30
0.0
 10
198.765437
 20
486.119764
 30
0.0
 10
198.503345
 20
486.531326
 30
0.0
 10
194.983812
 20
490.612847
 30
0.0
  0
SPLINE
  5
14c
100
AcDbEntity
  8
Layer_1
 62
7
100
AcDbSpline
 70
8
 71
3
 72
8
 73
4
 74
0
 40
0
 40
0
 40
0
 40
0
 40
1
 40
1
 40
1
 40
1
 10
194.983812
 20
490.612847
 30
0.0
 10
193.561024
 20
492.293480
 30
0.0
 10
192.175676
 20
494.900164
 30
0.0
 10
192.512653
 20
495.208857
 30
0.0
  0
SPLINE
  5
14d
100
AcDbEntity
  8
Layer_1
 62
7
100
AcDbSpline
 70
8
 71
3
 72
8
 73
4
 74
0
 40
0
 40
0
 40
0
 40
0
 40
1
 40
1
 40
1
 40
1
 10
192.512653
 20
495.208857
 30
0.0
 10
192.774745
 20
495.448951
 30
0.0
 10
196.107069
 20
493.699720
 30
0.0
 10
199.439391
 20
491.504598
 30
0.0
  0
SPLINE
  5
14e
100
AcDbEntity
  8
Layer_1
 62
7
100
AcDbSpline
 70
8
 71
3
 72
8
 73
4
 74
0
 40
0
 40
0
 40
0
 40
0
 40
1
 40
1
 40
1
 40
1
 10
199.439391
 20
491.504598
 30
0.0
 10
205.130551
 20
487.834668
 30
0.0
 10
205.916828
 20
487.388806
 30
0.0
 10
207.002648
 20
487.388806
 30
0.0
  0
SPLINE
  5
14f
100
AcDbEntity
  8
Layer_1
 62
7
100
AcDbSpline
 70
8
 71
3
 72
8
 73
4
 74
0
 40
0
 40
0
 40
0
 40
0
 40
1
 40
1
 40
1
 40
1
 10
207.002648
 20
487.388806
 30
0.0
 10
208.799853
 20
487.388806
 30
0.0
 10
208.687530
 20
488.143361
 30
0.0
 10
206.553336
 20
489.789694
 30
0.0
  0
SPLINE
  5
150
100
AcDbEntity
  8
Layer_1
 62
7
100
AcDbSpline
 70
8
 71
3
 72
8
 73
4
 74
0
 40
0
 40
0
 40
0
 40
0
 40
1
 40
1
 40
1
 40
1
 10
206.553336
 20
489.789694
 30
0.0
 10
201.873110
 20
493.356728
 30
0.0
 10
198.091485
 20
497.129584
 30
0.0
 10
196.893349
 20
499.393276
 30
0.0
  0
SPLINE
  5
151
100
AcDbEntity
  8
Layer_1
 62
7
100
AcDbSpline
 70
8
 71
3
 72
8
 73
4
 74
0
 40
0
 40
0
 40
0
 40
0
 40
1
 40
1
 40
1
 40
1
 10
196.893349
 20
499.393276
 30
0.0
 10
195.433115
 20
502.102857
 30
0.0
 10
194.571952
 20
505.601291
 30
0.0
 10
194.571952
 20
508.859660
 30
0.0
  0
SPLINE
  5
152
100
AcDbEntity
  8
Layer_1
 62
7
100
AcDbSpline
 70
8
 71
3
 72
8
 73
4
 74
0
 40
0
 40
0
 40
0
 40
0
 40
1
 40
1
 40
1
 40
1
 10
194.571952
 20
508.859660
 30
0.0
 10
194.571952
 20
512.289496
 30
0.0
 10
194.946372
 20
513.078350
 30
0.0
 10
197.529857
 20
514.587487
 30
0.0
  0
SPLINE
  5
153
100
AcDbEntity
  8
Layer_1
 62
7
100
AcDbSpline
 70
8
 71
3
 72
8
 73
4
 74
0
 40
0
 40
0
 40
0
 40
0
 40
1
 40
1
 40
1
 40
1
 10
197.529857
 20
514.587487
 30
0.0
 10
200.075902
 20
516.062324
 30
0.0
 10
200.974507
 20
516.130923
 30
0.0
 10
202.809158
 20
515.136274
 30
0.0
  0
SPLINE
  5
154
100
AcDbEntity
  8
Layer_1
 62
7
100
AcDbSpline
 70
8
 71
3
 72
8
 73
4
 74
0
 40
0
 40
0
 40
0
 40
0
 40
1
 40
1
 40
1
 40
1
 10
202.809158
 20
515.136274
 30
0.0
 10
205.355197
 20
513.695735
 30
0.0
 10
205.954274
 20
512.220898
 30
0.0
 10
205.205434
 20
509.477017
 30
0.0
  0
SPLINE
  5
155
100
AcDbEntity
  8
Layer_1
 62
7
100
AcDbSpline
 70
8
 71
3
 72
8
 73
4
 74
0
 40
0
 40
0
 40
0
 40
0
 40
1
 40
1
 40
1
 40
1
 10
205.205434
 20
509.477017
 30
0.0
 10
204.606366
 20
507.419121
 30
0.0
 10
204.643809
 20
505.532693
 30
0.0
 10
205.242880
 20
505.326898
 30
0.0
  0
SPLINE
  5
156
100
AcDbEntity
  8
Layer_1
 62
7
100
AcDbSpline
 70
8
 71
3
 72
8
 73
4
 74
0
 40
0
 40
0
 40
0
 40
0
 40
1
 40
1
 40
1
 40
1
 10
205.242880
 20
505.326898
 30
0.0
 10
205.654745
 20
505.224000
 30
0.0
 10
209.211710
 20
510.265899
 30
0.0
 10
210.110318
 20
512.220898
 30
0.0
  0
SPLINE
  5
157
100
AcDbEntity
  8
Layer_1
 62
7
100
AcDbSpline
 70
8
 71
3
 72
8
 73
4
 74
0
 40
0
 40
0
 40
0
 40
0
 40
1
 40
1
 40
1
 40
1
 10
210.110318
 20
512.220898
 30
0.0
 10
210.821717
 20
513.798633
 30
0.0
 10
210.821717
 20
517.091272
 30
0.0
 10
210.072844
 20
519.697956
 30
0.0
  0
SPLINE
  5
158
100
AcDbEntity
  8
Layer_1
 62
7
100
AcDbSpline
 70
8
 71
3
 72
8
 73
4
 74
0
 40
0
 40
0
 40
0
 40
0
 40
1
 40
1
 40
1
 40
1
 10
210.072844
 20
519.697956
 30
0.0
 10
209.211681
 20
522.750529
 30
0.0
 10
209.436335
 20
523.436485
 30
0.0
 10
211.458195
 20
524.362564
 30
0.0
  0
SPLINE
  5
159
100
AcDbEntity
  8
Layer_1
 62
7
100
AcDbSpline
 70
8
 71
3
 72
8
 73
4
 74
0
 40
0
 40
0
 40
0
 40
0
 40
1
 40
1
 40
1
 40
1
 10
211.458195
 20
524.362564
 30
0.0
 10
213.480054
 20
525.254315
 30
0.0
 10
218.984000
 20
525.974598
 30
0.0
 10
221.792145
 20
525.665906
 30
0.0
  0
SPLINE
  5
15a
100
AcDbEntity
  8
Layer_1
 62
7
100
AcDbSpline
 70
8
 71
3
 72
8
 73
4
 74
0
 40
0
 40
0
 40
0
 40
0
 40
1
 40
1
 40
1
 40
1
 10
221.792145
 20
525.665906
 30
0.0
 10
224.300747
 20
525.391512
 30
0.0
 10
226.285163
 20
524.774154
 30
0.0
 10
231.826552
 20
522.544734
 30
0.0
  0
SPLINE
  5
15b
100
AcDbEntity
  8
Layer_1
 62
7
100
AcDbSpline
 70
8
 71
3
 72
8
 73
4
 74
0
 40
0
 40
0
 40
0
 40
0
 40
1
 40
1
 40
1
 40
1
 10
231.826552
 20
522.544734
 30
0.0
 10
237.030965
 20
520.452539
 30
0.0
 10
239.801666
 20
519.835153
 30
0.0
 10
242.609800
 20
520.143846
 30
0.0
  0
LWPOLYLINE
  5
15c
100
AcDbEntity
  8
Layer_1
 62
7
100
AcDbPolyline
 90
3
 70
0
 10
187.607761
 20
484.885020
 30
0.0
 10
188.768458
 20
483.238687
 30
0.0
 10
188.880795
 20
484.404831
 30
0.0
  0
SPLINE
  5
15d
100
AcDbEntity
  8
Layer_1
 62
7
100
AcDbSpline
 70
8
 71
3
 72
8
 73
4
 74
0
 40
0
 40
0
 40
0
 40
0
 40
1
 40
1
 40
1
 40
1
 10
246.279098
 20
518.531839
 30
0.0
 10
251.520956
 20
512.872583
 30
0.0
 10
256.800260
 20
505.155430
 30
0.0
 10
261.592818
 20
496.134907
 30
0.0
  0
SPLINE
  5
15e
100
AcDbEntity
  8
Layer_1
 62
7
100
AcDbSpline
 70
8
 71
3
 72
8
 73
4
 74
0
 40
0
 40
0
 40
0
 40
0
 40
1
 40
1
 40
1
 40
1
 10
261.592818
 20
496.134907
 30
0.0
 10
265.299559
 20
489.172337
 30
0.0
 10
267.471184
 20
484.473430
 30
0.0
 10
272.638154
 20
472.160268
 30
0.0
  0
SPLINE
  5
15f
100
AcDbEntity
  8
Layer_1
 62
7
100
AcDbSpline
 70
8
 71
3
 72
8
 73
4
 74
0
 40
0
 40
0
 40
0
 40
0
 40
1
 40
1
 40
1
 40
1
 10
272.638154
 20
472.160268
 30
0.0
 10
276.457218
 20
463.036876
 30
0.0
 10
277.580480
 20
460.807483
 30
0.0
 10
278.441643
 20
460.807483
 30
0.0
  0
SPLINE
  5
160
100
AcDbEntity
  8
Layer_1
 62
7
100
AcDbSpline
 70
8
 71
3
 72
8
 73
4
 74
0
 40
0
 40
0
 40
0
 40
0
 40
1
 40
1
 40
1
 40
1
 10
278.441643
 20
460.807483
 30
0.0
 10
278.703734
 20
460.807483
 30
0.0
 10
279.377685
 20
461.493439
 30
0.0
 10
279.939317
 20
462.316620
 30
0.0
  0
SPLINE
  5
161
100
AcDbEntity
  8
Layer_1
 62
7
100
AcDbSpline
 70
8
 71
3
 72
8
 73
4
 74
0
 40
0
 40
0
 40
0
 40
0
 40
1
 40
1
 40
1
 40
1
 10
279.939317
 20
462.316620
 30
0.0
 10
281.699076
 20
465.129099
 30
0.0
 10
282.373030
 20
464.237320
 30
0.0
 10
281.212333
 20
460.635987
 30
0.0
  0
SPLINE
  5
162
100
AcDbEntity
  8
Layer_1
 62
7
100
AcDbSpline
 70
8
 71
3
 72
8
 73
4
 74
0
 40
0
 40
0
 40
0
 40
0
 40
1
 40
1
 40
1
 40
1
 10
281.212333
 20
460.635987
 30
0.0
 10
279.752105
 20
456.177175
 30
0.0
 10
281.362088
 20
452.987433
 30
0.0
 10
291.845820
 20
439.370929
 30
0.0
  0
SPLINE
  5
163
100
AcDbEntity
  8
Layer_1
 62
7
100
AcDbSpline
 70
8
 71
3
 72
8
 73
4
 74
0
 40
0
 40
0
 40
0
 40
0
 40
1
 40
1
 40
1
 40
1
 10
291.845820
 20
439.370929
 30
0.0
 10
295.589991
 20
434.534854
 30
0.0
 10
296.675802
 20
432.545528
 30
0.0
 10
298.660224
 20
426.852000
 30
0.0
  0
SPLINE
  5
164
100
AcDbEntity
  8
Layer_1
 62
7
100
AcDbSpline
 70
8
 71
3
 72
8
 73
4
 74
0
 40
0
 40
0
 40
0
 40
0
 40
1
 40
1
 40
1
 40
1
 10
298.660224
 20
426.852000
 30
0.0
 10
300.869291
 20
420.438189
 30
0.0
 10
304.351398
 20
413.852854
 30
0.0
 10
309.930236
 20
405.484016
 30
0.0
  0
SPLINE
  5
165
100
AcDbEntity
  8
Layer_1
 62
7
100
AcDbSpline
 70
8
 71
3
 72
8
 73
4
 74
0
 40
0
 40
0
 40
0
 40
0
 40
1
 40
1
 40
1
 40
1
 10
309.930236
 20
405.484016
 30
0.0
 10
311.353002
 20
403.391820
 30
0.0
 10
312.513704
 20
401.436822
 30
0.0
 10
312.513704
 20
401.162400
 30
0.0
  0
SPLINE
  5
166
100
AcDbEntity
  8
Layer_1
 62
7
100
AcDbSpline
 70
8
 71
3
 72
8
 73
4
 74
0
 40
0
 40
0
 40
0
 40
0
 40
1
 40
1
 40
1
 40
1
 10
312.513704
 20
401.162400
 30
0.0
 10
312.513704
 20
400.339276
 30
0.0
 10
309.443471
 20
397.732564
 30
0.0
 10
307.084649
 20
396.635017
 30
0.0
  0
SPLINE
  5
167
100
AcDbEntity
  8
Layer_1
 62
7
100
AcDbSpline
 70
8
 71
3
 72
8
 73
4
 74
0
 40
0
 40
0
 40
0
 40
0
 40
1
 40
1
 40
1
 40
1
 10
307.084649
 20
396.635017
 30
0.0
 10
305.849055
 20
396.017660
 30
0.0
 10
301.880211
 20
394.508523
 30
0.0
 10
298.285824
 20
393.239480
 30
0.0
  0
SPLINE
  5
168
100
AcDbEntity
  8
Layer_1
 62
7
100
AcDbSpline
 70
8
 71
3
 72
8
 73
4
 74
0
 40
0
 40
0
 40
0
 40
0
 40
1
 40
1
 40
1
 40
1
 10
298.285824
 20
393.239480
 30
0.0
 10
291.508838
 20
390.838564
 30
0.0
 10
284.769298
 20
387.923216
 30
0.0
 10
280.500936
 20
385.522328
 30
0.0
  0
SPLINE
  5
169
100
AcDbEntity
  8
Layer_1
 62
7
100
AcDbSpline
 70
8
 71
3
 72
8
 73
4
 74
0
 40
0
 40
0
 40
0
 40
0
 40
1
 40
1
 40
1
 40
1
 10
280.500936
 20
385.522328
 30
0.0
 10
279.153031
 20
384.767745
 30
0.0
 10
276.569552
 20
383.464403
 30
0.0
 10
274.734901
 20
382.641222
 30
0.0
  0
SPLINE
  5
16a
100
AcDbEntity
  8
Layer_1
 62
7
100
AcDbSpline
 70
8
 71
3
 72
8
 73
4
 74
0
 40
0
 40
0
 40
0
 40
0
 40
1
 40
1
 40
1
 40
1
 10
274.734901
 20
382.641222
 30
0.0
 10
272.900242
 20
381.783770
 30
0.0
 10
271.365137
 20
380.892019
 30
0.0
 10
271.252806
 20
380.651924
 30
0.0
  0
SPLINE
  5
16b
100
AcDbEntity
  8
Layer_1
 62
7
100
AcDbSpline
 70
8
 71
3
 72
8
 73
4
 74
0
 40
0
 40
0
 40
0
 40
0
 40
1
 40
1
 40
1
 40
1
 10
271.252806
 20
380.651924
 30
0.0
 10
271.140469
 20
380.308961
 30
0.0
 10
271.140469
 20
374.443909
 30
0.0
 10
271.327725
 20
369.470636
 30
0.0
  0
SPLINE
  5
16c
100
AcDbEntity
  8
Layer_1
 62
7
100
AcDbSpline
 70
8
 71
3
 72
8
 73
4
 74
0
 40
0
 40
0
 40
0
 40
0
 40
1
 40
1
 40
1
 40
1
 10
271.327725
 20
369.470636
 30
0.0
 10
271.327725
 20
369.230542
 30
0.0
 10
271.777025
 20
368.853250
 30
0.0
 10
272.376099
 20
368.647455
 30
0.0
  0
SPLINE
  5
16d
100
AcDbEntity
  8
Layer_1
 62
7
100
AcDbSpline
 70
8
 71
3
 72
8
 73
4
 74
0
 40
0
 40
0
 40
0
 40
0
 40
1
 40
1
 40
1
 40
1
 10
272.376099
 20
368.647455
 30
0.0
 10
272.937719
 20
368.407361
 30
0.0
 10
273.724004
 20
367.858602
 30
0.0
 10
274.173304
 20
367.378413
 30
0.0
  0
SPLINE
  5
16e
100
AcDbEntity
  8
Layer_1
 62
7
100
AcDbSpline
 70
8
 71
3
 72
8
 73
4
 74
0
 40
0
 40
0
 40
0
 40
0
 40
1
 40
1
 40
1
 40
1
 10
274.173304
 20
367.378413
 30
0.0
 10
274.959578
 20
366.520961
 30
0.0
 10
274.959578
 20
366.520961
 30
0.0
 10
276.607018
 20
367.104019
 30
0.0
  0
SPLINE
  5
16f
100
AcDbEntity
  8
Layer_1
 62
7
100
AcDbSpline
 70
8
 71
3
 72
8
 73
4
 74
0
 40
0
 40
0
 40
0
 40
0
 40
1
 40
1
 40
1
 40
1
 10
276.607018
 20
367.104019
 30
0.0
 10
277.543069
 20
367.412712
 30
0.0
 10
279.078185
 20
367.687106
 30
0.0
 10
280.089116
 20
367.687106
 30
0.0
  0
SPLINE
  5
170
100
AcDbEntity
  8
Layer_1
 62
7
100
AcDbSpline
 70
8
 71
3
 72
8
 73
4
 74
0
 40
0
 40
0
 40
0
 40
0
 40
1
 40
1
 40
1
 40
1
 10
280.089116
 20
367.687106
 30
0.0
 10
281.100044
 20
367.687106
 30
0.0
 10
282.560272
 20
367.858602
 30
0.0
 10
283.383992
 20
368.098696
 30
0.0
  0
SPLINE
  5
171
100
AcDbEntity
  8
Layer_1
 62
7
100
AcDbSpline
 70
8
 71
3
 72
8
 73
4
 74
0
 40
0
 40
0
 40
0
 40
0
 40
1
 40
1
 40
1
 40
1
 10
283.383992
 20
368.098696
 30
0.0
 10
285.181200
 20
368.578885
 30
0.0
 10
287.914450
 20
370.739679
 30
0.0
 10
288.550970
 20
372.145918
 30
0.0
  0
SPLINE
  5
172
100
AcDbEntity
  8
Layer_1
 62
7
100
AcDbSpline
 70
8
 71
3
 72
8
 73
4
 74
0
 40
0
 40
0
 40
0
 40
0
 40
1
 40
1
 40
1
 40
1
 10
288.550970
 20
372.145918
 30
0.0
 10
288.813175
 20
372.763276
 30
0.0
 10
289.262353
 20
373.174866
 30
0.0
 10
289.636781
 20
373.140567
 30
0.0
  0
SPLINE
  5
173
100
AcDbEntity
  8
Layer_1
 62
7
100
AcDbSpline
 70
8
 71
3
 72
8
 73
4
 74
0
 40
0
 40
0
 40
0
 40
0
 40
1
 40
1
 40
1
 40
1
 10
289.636781
 20
373.140567
 30
0.0
 10
291.097020
 20
373.003370
 30
0.0
 10
291.920740
 20
373.243465
 30
0.0
 10
292.931660
 20
373.998019
 30
0.0
  0
SPLINE
  5
174
100
AcDbEntity
  8
Layer_1
 62
7
100
AcDbSpline
 70
8
 71
3
 72
8
 73
4
 74
0
 40
0
 40
0
 40
0
 40
0
 40
1
 40
1
 40
1
 40
1
 10
292.931660
 20
373.998019
 30
0.0
 10
293.792825
 20
374.649704
 30
0.0
 10
294.167225
 20
374.752602
 30
0.0
 10
294.916082
 20
374.478208
 30
0.0
  0
SPLINE
  5
175
100
AcDbEntity
  8
Layer_1
 62
7
100
AcDbSpline
 70
8
 71
3
 72
8
 73
4
 74
0
 40
0
 40
0
 40
0
 40
0
 40
1
 40
1
 40
1
 40
1
 10
294.916082
 20
374.478208
 30
0.0
 10
295.440265
 20
374.272413
 30
0.0
 10
297.050258
 20
374.100945
 30
0.0
 10
298.473052
 20
374.100945
 30
0.0
  0
SPLINE
  5
176
100
AcDbEntity
  8
Layer_1
 62
7
100
AcDbSpline
 70
8
 71
3
 72
8
 73
4
 74
0
 40
0
 40
0
 40
0
 40
0
 40
1
 40
1
 40
1
 40
1
 10
298.473052
 20
374.100945
 30
0.0
 10
303.115833
 20
374.066646
 30
0.0
 10
307.459077
 20
376.055943
 30
0.0
 10
313.487235
 20
380.857720
 30
0.0
  0
SPLINE
  5
177
100
AcDbEntity
  8
Layer_1
 62
7
100
AcDbSpline
 70
8
 71
3
 72
8
 73
4
 74
0
 40
0
 40
0
 40
0
 40
0
 40
1
 40
1
 40
1
 40
1
 10
313.487235
 20
380.857720
 30
0.0
 10
315.359320
 20
382.401156
 30
0.0
 10
317.980261
 20
384.218986
 30
0.0
 10
319.290718
 20
384.904942
 30
0.0
  0
SPLINE
  5
178
100
AcDbEntity
  8
Layer_1
 62
7
100
AcDbSpline
 70
8
 71
3
 72
8
 73
4
 74
0
 40
0
 40
0
 40
0
 40
0
 40
1
 40
1
 40
1
 40
1
 10
319.290718
 20
384.904942
 30
0.0
 10
321.649540
 20
386.173984
 30
0.0
 10
321.724431
 20
386.208283
 30
0.0
 10
325.655830
 20
386.208283
 30
0.0
  0
SPLINE
  5
179
100
AcDbEntity
  8
Layer_1
 62
7
100
AcDbSpline
 70
8
 71
3
 72
8
 73
4
 74
0
 40
0
 40
0
 40
0
 40
0
 40
1
 40
1
 40
1
 40
1
 10
325.655830
 20
386.208283
 30
0.0
 10
330.261165
 20
386.208283
 30
0.0
 10
331.234668
 20
385.968189
 30
0.0
 10
334.754192
 20
383.910293
 30
0.0
  0
LWPOLYLINE
  5
17a
100
AcDbEntity
  8
Layer_1
 62
7
100
AcDbPolyline
 90
3
 70
0
 10
242.609800
 20
520.143846
 30
0.0
 10
244.594216
 20
520.383940
 30
0.0
 10
246.279098
 20
518.531839
 30
0.0
  0
SPLINE
  5
17b
100
AcDbEntity
  8
Layer_1
 62
7
100
AcDbSpline
 70
8
 71
3
 72
8
 73
4
 74
0
 40
0
 40
0
 40
0
 40
0
 40
1
 40
1
 40
1
 40
1
 10
335.503020
 20
380.823420
 30
0.0
 10
329.961628
 20
376.124542
 30
0.0
 10
325.019310
 20
374.272441
 30
0.0
 10
308.507471
 20
370.602482
 30
0.0
  0
SPLINE
  5
17c
100
AcDbEntity
  8
Layer_1
 62
7
100
AcDbSpline
 70
8
 71
3
 72
8
 73
4
 74
0
 40
0
 40
0
 40
0
 40
0
 40
1
 40
1
 40
1
 40
1
 10
308.507471
 20
370.602482
 30
0.0
 10
294.691436
 20
367.515609
 30
0.0
 10
290.235855
 20
366.212268
 30
0.0
 10
288.700724
 20
364.806057
 30
0.0
  0
SPLINE
  5
17d
100
AcDbEntity
  8
Layer_1
 62
7
100
AcDbSpline
 70
8
 71
3
 72
8
 73
4
 74
0
 40
0
 40
0
 40
0
 40
0
 40
1
 40
1
 40
1
 40
1
 10
288.700724
 20
364.806057
 30
0.0
 10
288.026787
 20
364.188671
 30
0.0
 10
287.390268
 20
363.262592
 30
0.0
 10
287.277931
 20
362.782431
 30
0.0
  0
SPLINE
  5
17e
100
AcDbEntity
  8
Layer_1
 62
7
100
AcDbSpline
 70
8
 71
3
 72
8
 73
4
 74
0
 40
0
 40
0
 40
0
 40
0
 40
1
 40
1
 40
1
 40
1
 10
287.277931
 20
362.782431
 30
0.0
 10
287.165679
 20
362.267943
 30
0.0
 10
286.978422
 20
361.513389
 30
0.0
 10
286.866085
 20
361.067499
 30
0.0
  0
SPLINE
  5
17f
100
AcDbEntity
  8
Layer_1
 62
7
100
AcDbSpline
 70
8
 71
3
 72
8
 73
4
 74
0
 40
0
 40
0
 40
0
 40
0
 40
1
 40
1
 40
1
 40
1
 10
286.866085
 20
361.067499
 30
0.0
 10
286.791250
 20
360.621609
 30
0.0
 10
286.304457
 20
360.072850
 30
0.0
 10
285.780274
 20
359.867055
 30
0.0
  0
SPLINE
  5
180
100
AcDbEntity
  8
Layer_1
 62
7
100
AcDbSpline
 70
8
 71
3
 72
8
 73
4
 74
0
 40
0
 40
0
 40
0
 40
0
 40
1
 40
1
 40
1
 40
1
 10
285.780274
 20
359.867055
 30
0.0
 10
284.582126
 20
359.386894
 30
0.0
 10
283.870743
 20
357.260372
 30
0.0
 10
283.159349
 20
351.806910
 30
0.0
  0
SPLINE
  5
181
100
AcDbEntity
  8
Layer_1
 62
7
100
AcDbSpline
 70
8
 71
3
 72
8
 73
4
 74
0
 40
0
 40
0
 40
0
 40
0
 40
1
 40
1
 40
1
 40
1
 10
283.159349
 20
351.806910
 30
0.0
 10
282.822372
 20
349.371723
 30
0.0
 10
282.298184
 20
346.867937
 30
0.0
 10
281.998641
 20
346.181981
 30
0.0
  0
SPLINE
  5
182
100
AcDbEntity
  8
Layer_1
 62
7
100
AcDbSpline
 70
8
 71
3
 72
8
 73
4
 74
0
 40
0
 40
0
 40
0
 40
0
 40
1
 40
1
 40
1
 40
1
 10
281.998641
 20
346.181981
 30
0.0
 10
281.474467
 20
345.050107
 30
0.0
 10
281.474467
 20
344.878639
 30
0.0
 10
282.036115
 20
344.295553
 30
0.0
  0
SPLINE
  5
183
100
AcDbEntity
  8
Layer_1
 62
7
100
AcDbSpline
 70
8
 71
3
 72
8
 73
4
 74
0
 40
0
 40
0
 40
0
 40
0
 40
1
 40
1
 40
1
 40
1
 10
282.036115
 20
344.295553
 30
0.0
 10
282.822401
 20
343.540998
 30
0.0
 10
285.293565
 20
343.472372
 30
0.0
 10
287.090759
 20
344.158356
 30
0.0
  0
SPLINE
  5
184
100
AcDbEntity
  8
Layer_1
 62
7
100
AcDbSpline
 70
8
 71
3
 72
8
 73
4
 74
0
 40
0
 40
0
 40
0
 40
0
 40
1
 40
1
 40
1
 40
1
 10
287.090759
 20
344.158356
 30
0.0
 10
288.251461
 20
344.604217
 30
0.0
 10
288.363798
 20
344.604217
 30
0.0
 10
288.738198
 20
343.883962
 30
0.0
  0
SPLINE
  5
185
100
AcDbEntity
  8
Layer_1
 62
7
100
AcDbSpline
 70
8
 71
3
 72
8
 73
4
 74
0
 40
0
 40
0
 40
0
 40
0
 40
1
 40
1
 40
1
 40
1
 10
288.738198
 20
343.883962
 30
0.0
 10
289.374718
 20
342.717789
 30
0.0
 10
290.497975
 20
342.854986
 30
0.0
 10
294.129836
 20
344.501320
 30
0.0
  0
SPLINE
  5
186
100
AcDbEntity
  8
Layer_1
 62
7
100
AcDbSpline
 70
8
 71
3
 72
8
 73
4
 74
0
 40
0
 40
0
 40
0
 40
0
 40
1
 40
1
 40
1
 40
1
 10
294.129836
 20
344.501320
 30
0.0
 10
296.001921
 20
345.358772
 30
0.0
 10
297.611915
 20
346.079055
 30
0.0
 10
297.686806
 20
346.079055
 30
0.0
  0
SPLINE
  5
187
100
AcDbEntity
  8
Layer_1
 62
7
100
AcDbSpline
 70
8
 71
3
 72
8
 73
4
 74
0
 40
0
 40
0
 40
0
 40
0
 40
1
 40
1
 40
1
 40
1
 10
297.686806
 20
346.079055
 30
0.0
 10
297.799058
 20
346.079055
 30
0.0
 10
297.986343
 20
345.530268
 30
0.0
 10
298.136098
 20
344.878611
 30
0.0
  0
SPLINE
  5
188
100
AcDbEntity
  8
Layer_1
 62
7
100
AcDbSpline
 70
8
 71
3
 72
8
 73
4
 74
0
 40
0
 40
0
 40
0
 40
0
 40
1
 40
1
 40
1
 40
1
 10
298.136098
 20
344.878611
 30
0.0
 10
298.360602
 20
343.712466
 30
0.0
 10
299.596337
 20
342.512022
 30
0.0
 10
300.195411
 20
342.854986
 30
0.0
  0
SPLINE
  5
189
100
AcDbEntity
  8
Layer_1
 62
7
100
AcDbSpline
 70
8
 71
3
 72
8
 73
4
 74
0
 40
0
 40
0
 40
0
 40
0
 40
1
 40
1
 40
1
 40
1
 10
300.195411
 20
342.854986
 30
0.0
 10
300.345080
 20
342.923584
 30
0.0
 10
301.356113
 20
343.163679
 30
0.0
 10
302.441924
 20
343.335175
 30
0.0
  0
SPLINE
  5
18a
100
AcDbEntity
  8
Layer_1
 62
7
100
AcDbSpline
 70
8
 71
3
 72
8
 73
4
 74
0
 40
0
 40
0
 40
0
 40
0
 40
1
 40
1
 40
1
 40
1
 10
302.441924
 20
343.335175
 30
0.0
 10
305.324929
 20
343.849663
 30
0.0
 10
305.849140
 20
344.432721
 30
0.0
 10
305.549603
 20
346.662142
 30
0.0
  0
LWPOLYLINE
  5
18b
100
AcDbEntity
  8
Layer_1
 62
7
100
AcDbPolyline
 90
3
 70
0
 10
334.754192
 20
383.910293
 30
0.0
 10
337.337688
 20
382.401156
 30
0.0
 10
335.503020
 20
380.823420
 30
0.0
  0
SPLINE
  5
18c
100
AcDbEntity
  8
Layer_1
 62
7
100
AcDbSpline
 70
8
 71
3
 72
8
 73
4
 74
0
 40
0
 40
0
 40
0
 40
0
 40
1
 40
1
 40
1
 40
1
 10
306.597827
 20
348.960132
 30
0.0
 10
307.309209
 20
349.234526
 30
0.0
 10
309.630614
 20
349.646088
 30
0.0
 10
311.764791
 20
349.817584
 30
0.0
  0
SPLINE
  5
18d
100
AcDbEntity
  8
Layer_1
 62
7
100
AcDbSpline
 70
8
 71
3
 72
8
 73
4
 74
0
 40
0
 40
0
 40
0
 40
0
 40
1
 40
1
 40
1
 40
1
 10
311.764791
 20
349.817584
 30
0.0
 10
316.557354
 20
350.297773
 30
0.0
 10
318.167348
 20
351.018028
 30
0.0
 10
322.023855
 20
354.619389
 30
0.0
  0
SPLINE
  5
18e
100
AcDbEntity
  8
Layer_1
 62
7
100
AcDbSpline
 70
8
 71
3
 72
8
 73
4
 74
0
 40
0
 40
0
 40
0
 40
0
 40
1
 40
1
 40
1
 40
1
 10
322.023855
 20
354.619389
 30
0.0
 10
324.270369
 20
356.711584
 30
0.0
 10
325.618271
 20
357.637635
 30
0.0
 10
328.501304
 20
359.009575
 30
0.0
  0
SPLINE
  5
18f
100
AcDbEntity
  8
Layer_1
 62
7
100
AcDbSpline
 70
8
 71
3
 72
8
 73
4
 74
0
 40
0
 40
0
 40
0
 40
0
 40
1
 40
1
 40
1
 40
1
 10
328.501304
 20
359.009575
 30
0.0
 10
333.106639
 20
361.204668
 30
0.0
 10
335.652690
 20
362.027849
 30
0.0
 10
345.013143
 20
364.394438
 30
0.0
  0
SPLINE
  5
190
100
AcDbEntity
  8
Layer_1
 62
7
100
AcDbSpline
 70
8
 71
3
 72
8
 73
4
 74
0
 40
0
 40
0
 40
0
 40
0
 40
1
 40
1
 40
1
 40
1
 10
345.013143
 20
364.394438
 30
0.0
 10
352.913386
 20
366.383764
 30
0.0
 10
357.106876
 20
367.755704
 30
0.0
 10
360.251972
 20
369.333411
 30
0.0
  0
SPLINE
  5
191
100
AcDbEntity
  8
Layer_1
 62
7
100
AcDbSpline
 70
8
 71
3
 72
8
 73
4
 74
0
 40
0
 40
0
 40
0
 40
0
 40
1
 40
1
 40
1
 40
1
 10
360.251972
 20
369.333411
 30
0.0
 10
362.648268
 20
370.499556
 30
0.0
 10
363.621742
 20
372.283087
 30
0.0
 10
364.183370
 20
376.227411
 30
0.0
  0
SPLINE
  5
192
100
AcDbEntity
  8
Layer_1
 62
7
100
AcDbSpline
 70
8
 71
3
 72
8
 73
4
 74
0
 40
0
 40
0
 40
0
 40
0
 40
1
 40
1
 40
1
 40
1
 10
364.183370
 20
376.227411
 30
0.0
 10
364.744998
 20
380.617625
 30
0.0
 10
364.932198
 20
380.720523
 30
0.0
 10
371.072665
 20
380.686224
 30
0.0
  0
SPLINE
  5
193
100
AcDbEntity
  8
Layer_1
 62
7
100
AcDbSpline
 70
8
 71
3
 72
8
 73
4
 74
0
 40
0
 40
0
 40
0
 40
0
 40
1
 40
1
 40
1
 40
1
 10
371.072665
 20
380.686224
 30
0.0
 10
379.047770
 20
380.617625
 30
0.0
 10
380.283364
 20
381.440778
 30
0.0
 10
380.283364
 20
386.654145
 30
0.0
  0
LWPOLYLINE
  5
194
100
AcDbEntity
  8
Layer_1
 62
7
100
AcDbPolyline
 90
3
 70
0
 10
305.549603
 20
346.662142
 30
0.0
 10
305.324816
 20
348.479943
 30
0.0
 10
306.597827
 20
348.960132
 30
0.0
  0
SPLINE
  5
195
100
AcDbEntity
  8
Layer_1
 62
7
100
AcDbSpline
 70
8
 71
3
 72
8
 73
4
 74
0
 40
0
 40
0
 40
0
 40
0
 40
1
 40
1
 40
1
 40
1
 10
382.267757
 20
390.255506
 30
0.0
 10
385.188236
 20
391.318753
 30
0.0
 10
389.007298
 20
392.244803
 30
0.0
 10
393.200787
 20
392.930787
 30
0.0
  0
SPLINE
  5
196
100
AcDbEntity
  8
Layer_1
 62
7
100
AcDbSpline
 70
8
 71
3
 72
8
 73
4
 74
0
 40
0
 40
0
 40
0
 40
0
 40
1
 40
1
 40
1
 40
1
 10
393.200787
 20
392.930787
 30
0.0
 10
398.891962
 20
393.891137
 30
0.0
 10
412.333569
 20
393.788239
 30
0.0
 10
419.522400
 20
392.759291
 30
0.0
  0
SPLINE
  5
197
100
AcDbEntity
  8
Layer_1
 62
7
100
AcDbSpline
 70
8
 71
3
 72
8
 73
4
 74
0
 40
0
 40
0
 40
0
 40
0
 40
1
 40
1
 40
1
 40
1
 10
419.522400
 20
392.759291
 30
0.0
 10
435.921931
 20
390.461272
 30
0.0
 10
448.689572
 20
385.385131
 30
0.0
 10
456.702151
 20
378.010942
 30
0.0
  0
SPLINE
  5
198
100
AcDbEntity
  8
Layer_1
 62
7
100
AcDbSpline
 70
8
 71
3
 72
8
 73
4
 74
0
 40
0
 40
0
 40
0
 40
0
 40
1
 40
1
 40
1
 40
1
 10
456.702151
 20
378.010942
 30
0.0
 10
462.880035
 20
372.351685
 30
0.0
 10
465.276331
 20
366.555260
 30
0.0
 10
464.490028
 20
359.318268
 30
0.0
  0
SPLINE
  5
199
100
AcDbEntity
  8
Layer_1
 62
7
100
AcDbSpline
 70
8
 71
3
 72
8
 73
4
 74
0
 40
0
 40
0
 40
0
 40
0
 40
1
 40
1
 40
1
 40
1
 10
464.490028
 20
359.318268
 30
0.0
 10
464.115628
 20
355.957030
 30
0.0
 10
462.430743
 20
350.949430
 30
0.0
 10
460.783276
 20
348.274148
 30
0.0
  0
SPLINE
  5
19a
100
AcDbEntity
  8
Layer_1
 62
7
100
AcDbSpline
 70
8
 71
3
 72
8
 73
4
 74
0
 40
0
 40
0
 40
0
 40
0
 40
1
 40
1
 40
1
 40
1
 10
460.783276
 20
348.274148
 30
0.0
 10
457.188888
 20
342.580620
 30
0.0
 10
449.026554
 20
338.944961
 30
0.0
 10
435.697257
 20
337.161458
 30
0.0
  0
SPLINE
  5
19b
100
AcDbEntity
  8
Layer_1
 62
7
100
AcDbSpline
 70
8
 71
3
 72
8
 73
4
 74
0
 40
0
 40
0
 40
0
 40
0
 40
1
 40
1
 40
1
 40
1
 10
435.697257
 20
337.161458
 30
0.0
 10
427.272860
 20
336.029584
 30
0.0
 10
422.255650
 20
335.789518
 30
0.0
 10
397.244494
 20
335.275030
 30
0.0
  0
SPLINE
  5
19c
100
AcDbEntity
  8
Layer_1
 62
7
100
AcDbSpline
 70
8
 71
3
 72
8
 73
4
 74
0
 40
0
 40
0
 40
0
 40
0
 40
1
 40
1
 40
1
 40
1
 10
397.244494
 20
335.275030
 30
0.0
 10
365.905701
 20
334.623373
 30
0.0
 10
355.421991
 20
333.834491
 30
0.0
 10
345.162926
 20
331.330706
 30
0.0
  0
SPLINE
  5
19d
100
AcDbEntity
  8
Layer_1
 62
7
100
AcDbSpline
 70
8
 71
3
 72
8
 73
4
 74
0
 40
0
 40
0
 40
0
 40
0
 40
1
 40
1
 40
1
 40
1
 10
345.162926
 20
331.330706
 30
0.0
 10
316.182954
 20
324.230910
 30
0.0
 10
291.433890
 20
308.590809
 30
0.0
 10
276.906458
 20
288.148961
 30
0.0
  0
SPLINE
  5
19e
100
AcDbEntity
  8
Layer_1
 62
7
100
AcDbSpline
 70
8
 71
3
 72
8
 73
4
 74
0
 40
0
 40
0
 40
0
 40
0
 40
1
 40
1
 40
1
 40
1
 10
276.906458
 20
288.148961
 30
0.0
 10
270.578781
 20
279.265635
 30
0.0
 10
266.235531
 20
268.804602
 30
0.0
 10
266.535062
 20
263.111046
 30
0.0
  0
LWPOLYLINE
  5
19f
100
AcDbEntity
  8
Layer_1
 62
7
100
AcDbPolyline
 90
3
 70
0
 10
380.283364
 20
386.654145
 30
0.0
 10
380.283364
 20
389.569521
 30
0.0
 10
382.267757
 20
390.255506
 30
0.0
  0
SPLINE
  5
1a0
100
AcDbEntity
  8
Layer_1
 62
7
100
AcDbSpline
 70
8
 71
3
 72
8
 73
4
 74
0
 40
0
 40
0
 40
0
 40
0
 40
1
 40
1
 40
1
 40
1
 10
269.455533
 20
265.340438
 30
0.0
 10
275.932964
 20
275.561405
 30
0.0
 10
281.436919
 20
282.249609
 30
0.0
 10
289.112485
 20
289.315077
 30
0.0
  0
SPLINE
  5
1a1
100
AcDbEntity
  8
Layer_1
 62
7
100
AcDbSpline
 70
8
 71
3
 72
8
 73
4
 74
0
 40
0
 40
0
 40
0
 40
0
 40
1
 40
1
 40
1
 40
1
 10
289.112485
 20
289.315077
 30
0.0
 10
297.574356
 20
297.100857
 30
0.0
 10
305.624353
 20
302.588589
 30
0.0
 10
315.696189
 20
307.356066
 30
0.0
  0
SPLINE
  5
1a2
100
AcDbEntity
  8
Layer_1
 62
7
100
AcDbSpline
 70
8
 71
3
 72
8
 73
4
 74
0
 40
0
 40
0
 40
0
 40
0
 40
1
 40
1
 40
1
 40
1
 10
315.696189
 20
307.356066
 30
0.0
 10
331.871074
 20
315.073219
 30
0.0
 10
348.682450
 20
318.846047
 30
0.0
 10
369.575008
 20
319.532031
 30
0.0
  0
SPLINE
  5
1a3
100
AcDbEntity
  8
Layer_1
 62
7
100
AcDbSpline
 70
8
 71
3
 72
8
 73
4
 74
0
 40
0
 40
0
 40
0
 40
0
 40
1
 40
1
 40
1
 40
1
 10
369.575008
 20
319.532031
 30
0.0
 10
376.951039
 20
319.772126
 30
0.0
 10
384.139871
 20
319.429134
 30
0.0
 10
396.944986
 20
318.262989
 30
0.0
  0
SPLINE
  5
1a4
100
AcDbEntity
  8
Layer_1
 62
7
100
AcDbSpline
 70
8
 71
3
 72
8
 73
4
 74
0
 40
0
 40
0
 40
0
 40
0
 40
1
 40
1
 40
1
 40
1
 10
396.944986
 20
318.262989
 30
0.0
 10
406.867068
 20
317.371238
 30
0.0
 10
424.090318
 20
317.199742
 30
0.0
 10
430.455402
 20
317.919997
 30
0.0
  0
SPLINE
  5
1a5
100
AcDbEntity
  8
Layer_1
 62
7
100
AcDbSpline
 70
8
 71
3
 72
8
 73
4
 74
0
 40
0
 40
0
 40
0
 40
0
 40
1
 40
1
 40
1
 40
1
 10
430.455402
 20
317.919997
 30
0.0
 10
445.581921
 20
319.634929
 30
0.0
 10
455.279357
 20
322.173014
 30
0.0
 10
464.265411
 20
326.768995
 30
0.0
  0
SPLINE
  5
1a6
100
AcDbEntity
  8
Layer_1
 62
7
100
AcDbSpline
 70
8
 71
3
 72
8
 73
4
 74
0
 40
0
 40
0
 40
0
 40
0
 40
1
 40
1
 40
1
 40
1
 10
464.265411
 20
326.768995
 30
0.0
 10
475.460504
 20
332.496850
 30
0.0
 10
482.536998
 20
340.385499
 30
0.0
 10
485.195386
 20
350.057679
 30
0.0
  0
SPLINE
  5
1a7
100
AcDbEntity
  8
Layer_1
 62
7
100
AcDbSpline
 70
8
 71
3
 72
8
 73
4
 74
0
 40
0
 40
0
 40
0
 40
0
 40
1
 40
1
 40
1
 40
1
 10
485.195386
 20
350.057679
 30
0.0
 10
486.281197
 20
354.070602
 30
0.0
 10
486.356088
 20
361.307565
 30
0.0
 10
485.345055
 20
365.560583
 30
0.0
  0
SPLINE
  5
1a8
100
AcDbEntity
  8
Layer_1
 62
7
100
AcDbSpline
 70
8
 71
3
 72
8
 73
4
 74
0
 40
0
 40
0
 40
0
 40
0
 40
1
 40
1
 40
1
 40
1
 10
485.345055
 20
365.560583
 30
0.0
 10
481.713052
 20
381.063515
 30
0.0
 10
469.806576
 20
395.537471
 30
0.0
 10
449.063773
 20
409.634164
 30
0.0
  0
SPLINE
  5
1a9
100
AcDbEntity
  8
Layer_1
 62
7
100
AcDbSpline
 70
8
 71
3
 72
8
 73
4
 74
0
 40
0
 40
0
 40
0
 40
0
 40
1
 40
1
 40
1
 40
1
 10
449.063773
 20
409.634164
 30
0.0
 10
447.453780
 20
410.731682
 30
0.0
 10
446.218214
 20
411.829228
 30
0.0
 10
446.293077
 20
412.035052
 30
0.0
  0
SPLINE
  5
1aa
100
AcDbEntity
  8
Layer_1
 62
7
100
AcDbSpline
 70
8
 71
3
 72
8
 73
4
 74
0
 40
0
 40
0
 40
0
 40
0
 40
1
 40
1
 40
1
 40
1
 10
446.293077
 20
412.035052
 30
0.0
 10
446.367912
 20
412.275146
 30
0.0
 10
447.266580
 20
412.480913
 30
0.0
 10
448.277499
 20
412.549512
 30
0.0
  0
SPLINE
  5
1ab
100
AcDbEntity
  8
Layer_1
 62
7
100
AcDbSpline
 70
8
 71
3
 72
8
 73
4
 74
0
 40
0
 40
0
 40
0
 40
0
 40
1
 40
1
 40
1
 40
1
 10
448.277499
 20
412.549512
 30
0.0
 10
449.288447
 20
412.618110
 30
0.0
 10
450.224476
 20
412.789606
 30
0.0
 10
450.411704
 20
412.926803
 30
0.0
  0
SPLINE
  5
1ac
100
AcDbEntity
  8
Layer_1
 62
7
100
AcDbSpline
 70
8
 71
3
 72
8
 73
4
 74
0
 40
0
 40
0
 40
0
 40
0
 40
1
 40
1
 40
1
 40
1
 10
450.411704
 20
412.926803
 30
0.0
 10
450.935887
 20
413.406964
 30
0.0
 10
449.363310
 20
414.195846
 30
0.0
 10
446.929597
 20
414.641707
 30
0.0
  0
SPLINE
  5
1ad
100
AcDbEntity
  8
Layer_1
 62
7
100
AcDbSpline
 70
8
 71
3
 72
8
 73
4
 74
0
 40
0
 40
0
 40
0
 40
0
 40
1
 40
1
 40
1
 40
1
 10
446.929597
 20
414.641707
 30
0.0
 10
444.009146
 20
415.156195
 30
0.0
 10
441.126113
 20
416.322340
 30
0.0
 10
439.703320
 20
417.557083
 30
0.0
  0
SPLINE
  5
1ae
100
AcDbEntity
  8
Layer_1
 62
7
100
AcDbSpline
 70
8
 71
3
 72
8
 73
4
 74
0
 40
0
 40
0
 40
0
 40
0
 40
1
 40
1
 40
1
 40
1
 10
439.703320
 20
417.557083
 30
0.0
 10
438.318000
 20
418.826126
 30
0.0
 10
437.456835
 20
420.541058
 30
0.0
 10
436.670532
 20
423.765099
 30
0.0
  0
SPLINE
  5
1af
100
AcDbEntity
  8
Layer_1
 62
7
100
AcDbSpline
 70
8
 71
3
 72
8
 73
4
 74
0
 40
0
 40
0
 40
0
 40
0
 40
1
 40
1
 40
1
 40
1
 10
436.670532
 20
423.765099
 30
0.0
 10
435.846813
 20
427.092066
 30
0.0
 10
434.948230
 20
428.772699
 30
0.0
 10
433.450545
 20
429.835946
 30
0.0
  0
SPLINE
  5
1b0
100
AcDbEntity
  8
Layer_1
 62
7
100
AcDbSpline
 70
8
 71
3
 72
8
 73
4
 74
0
 40
0
 40
0
 40
0
 40
0
 40
1
 40
1
 40
1
 40
1
 10
433.450545
 20
429.835946
 30
0.0
 10
432.327288
 20
430.624828
 30
0.0
 10
432.289843
 20
430.727698
 30
0.0
 10
431.428677
 20
437.141509
 30
0.0
  0
SPLINE
  5
1b1
100
AcDbEntity
  8
Layer_1
 62
7
100
AcDbSpline
 70
8
 71
3
 72
8
 73
4
 74
0
 40
0
 40
0
 40
0
 40
0
 40
1
 40
1
 40
1
 40
1
 10
431.428677
 20
437.141509
 30
0.0
 10
422.592350
 20
500.696617
 30
0.0
 10
406.941676
 20
539.351008
 30
0.0
 10
376.538882
 20
572.792006
 30
0.0
  0
SPLINE
  5
1b2
100
AcDbEntity
  8
Layer_1
 62
7
100
AcDbSpline
 70
8
 71
3
 72
8
 73
4
 74
0
 40
0
 40
0
 40
0
 40
0
 40
1
 40
1
 40
1
 40
1
 10
376.538882
 20
572.792006
 30
0.0
 10
371.034935
 20
578.828537
 30
0.0
 10
357.668192
 20
591.004494
 30
0.0
 10
353.324948
 20
593.919873
 30
0.0
  0
SPLINE
  5
1b3
100
AcDbEntity
  8
Layer_1
 62
7
100
AcDbSpline
 70
8
 71
3
 72
8
 73
4
 74
0
 40
0
 40
0
 40
0
 40
0
 40
1
 40
1
 40
1
 40
1
 10
353.324948
 20
593.919873
 30
0.0
 10
351.377972
 20
595.257511
 30
0.0
 10
346.997282
 20
598.104281
 30
0.0
 10
343.590094
 20
600.230792
 30
0.0
  0
SPLINE
  5
1b4
100
AcDbEntity
  8
Layer_1
 62
7
100
AcDbSpline
 70
8
 71
3
 72
8
 73
4
 74
0
 40
0
 40
0
 40
0
 40
0
 40
1
 40
1
 40
1
 40
1
 10
343.590094
 20
600.230792
 30
0.0
 10
331.009625
 20
608.188037
 30
0.0
 10
326.703827
 20
611.480690
 30
0.0
 10
326.142170
 20
613.435703
 30
0.0
  0
SPLINE
  5
1b5
100
AcDbEntity
  8
Layer_1
 62
7
100
AcDbSpline
 70
8
 71
3
 72
8
 73
4
 74
0
 40
0
 40
0
 40
0
 40
0
 40
1
 40
1
 40
1
 40
1
 10
326.142170
 20
613.435703
 30
0.0
 10
325.955083
 20
614.155972
 30
0.0
 10
326.104753
 20
614.533255
 30
0.0
 10
326.965918
 20
615.356419
 30
0.0
  0
SPLINE
  5
1b6
100
AcDbEntity
  8
Layer_1
 62
7
100
AcDbSpline
 70
8
 71
3
 72
8
 73
4
 74
0
 40
0
 40
0
 40
0
 40
0
 40
1
 40
1
 40
1
 40
1
 10
326.965918
 20
615.356419
 30
0.0
 10
327.527518
 20
615.905195
 30
0.0
 10
327.864501
 20
616.453971
 30
0.0
 10
327.714746
 20
616.591165
 30
0.0
  0
SPLINE
  5
1b7
100
AcDbEntity
  8
Layer_1
 62
7
100
AcDbSpline
 70
8
 71
3
 72
8
 73
4
 74
0
 40
0
 40
0
 40
0
 40
0
 40
1
 40
1
 40
1
 40
1
 10
327.714746
 20
616.591165
 30
0.0
 10
327.565077
 20
616.728362
 30
0.0
 10
325.206142
 20
616.968448
 30
0.0
 10
322.510337
 20
617.071343
 30
0.0
  0
SPLINE
  5
1b8
100
AcDbEntity
  8
Layer_1
 62
7
100
AcDbSpline
 70
8
 71
3
 72
8
 73
4
 74
0
 40
0
 40
0
 40
0
 40
0
 40
1
 40
1
 40
1
 40
1
 10
322.510337
 20
617.071343
 30
0.0
 10
315.284060
 20
617.380030
 30
0.0
 10
313.224746
 20
618.237490
 30
0.0
 10
310.004759
 20
622.181815
 30
0.0
  0
SPLINE
  5
1b9
100
AcDbEntity
  8
Layer_1
 62
7
100
AcDbSpline
 70
8
 71
3
 72
8
 73
4
 74
0
 40
0
 40
0
 40
0
 40
0
 40
1
 40
1
 40
1
 40
1
 10
310.004759
 20
622.181815
 30
0.0
 10
306.897080
 20
626.023247
 30
0.0
 10
301.393134
 20
630.036167
 30
0.0
 10
295.477313
 20
632.745748
 30
0.0
  0
SPLINE
  5
1ba
100
AcDbEntity
  8
Layer_1
 62
7
100
AcDbSpline
 70
8
 71
3
 72
8
 73
4
 74
0
 40
0
 40
0
 40
0
 40
0
 40
1
 40
1
 40
1
 40
1
 10
295.477313
 20
632.745748
 30
0.0
 10
289.524076
 20
635.455327
 30
0.0
 10
280.800130
 20
637.753326
 30
0.0
 10
274.734553
 20
638.199207
 30
0.0
  0
LWPOLYLINE
  5
1bb
100
AcDbEntity
  8
Layer_1
 62
7
100
AcDbPolyline
 90
3
 70
0
 10
266.535062
 20
263.111046
 30
0.0
 10
266.647399
 20
260.950252
 30
0.0
 10
269.455533
 20
265.340438
 30
0.0
  0
SPLINE
  5
1bc
100
AcDbEntity
  8
Layer_1
 62
7
100
AcDbSpline
 70
8
 71
3
 72
8
 73
4
 74
0
 40
0
 40
0
 40
0
 40
0
 40
1
 40
1
 40
1
 40
1
 10
267.246181
 20
641.903448
 30
0.0
 10
258.335022
 20
649.106127
 30
0.0
 10
247.102478
 20
660.253133
 30
0.0
 10
242.497125
 20
666.529750
 30
0.0
  0
SPLINE
  5
1bd
100
AcDbEntity
  8
Layer_1
 62
7
100
AcDbSpline
 70
8
 71
3
 72
8
 73
4
 74
0
 40
0
 40
0
 40
0
 40
0
 40
1
 40
1
 40
1
 40
1
 10
242.497125
 20
666.529750
 30
0.0
 10
240.100846
 20
669.753816
 30
0.0
 10
239.688992
 20
671.091454
 30
0.0
 10
241.036900
 20
671.297247
 30
0.0
  0
SPLINE
  5
1be
100
AcDbEntity
  8
Layer_1
 62
7
100
AcDbSpline
 70
8
 71
3
 72
8
 73
4
 74
0
 40
0
 40
0
 40
0
 40
0
 40
1
 40
1
 40
1
 40
1
 10
241.036900
 20
671.297247
 30
0.0
 10
241.561074
 20
671.365874
 30
0.0
 10
240.662480
 20
671.948909
 30
0.0
 10
238.004110
 20
673.286559
 30
0.0
  0
SPLINE
  5
1bf
100
AcDbEntity
  8
Layer_1
 62
7
100
AcDbSpline
 70
8
 71
3
 72
8
 73
4
 74
0
 40
0
 40
0
 40
0
 40
0
 40
1
 40
1
 40
1
 40
1
 10
238.004110
 20
673.286559
 30
0.0
 10
234.821546
 20
674.864280
 30
0.0
 10
234.259926
 20
675.275868
 30
0.0
 10
234.409691
 20
675.858940
 30
0.0
  0
SPLINE
  5
1c0
100
AcDbEntity
  8
Layer_1
 62
7
100
AcDbSpline
 70
8
 71
3
 72
8
 73
4
 74
0
 40
0
 40
0
 40
0
 40
0
 40
1
 40
1
 40
1
 40
1
 10
234.409691
 20
675.858940
 30
0.0
 10
235.869919
 20
681.483895
 30
0.0
 10
236.206896
 20
683.610398
 30
0.0
 10
236.057131
 20
687.211733
 30
0.0
  0
SPLINE
  5
1c1
100
AcDbEntity
  8
Layer_1
 62
7
100
AcDbSpline
 70
8
 71
3
 72
8
 73
4
 74
0
 40
0
 40
0
 40
0
 40
0
 40
1
 40
1
 40
1
 40
1
 10
236.057131
 20
687.211733
 30
0.0
 10
235.907348
 20
690.675883
 30
0.0
 10
235.795039
 20
691.258955
 30
0.0
 10
234.709226
 20
693.282566
 30
0.0
  0
SPLINE
  5
1c2
100
AcDbEntity
  8
Layer_1
 62
7
100
AcDbSpline
 70
8
 71
3
 72
8
 73
4
 74
0
 40
0
 40
0
 40
0
 40
0
 40
1
 40
1
 40
1
 40
1
 10
234.709226
 20
693.282566
 30
0.0
 10
233.211552
 20
696.026443
 30
0.0
 10
230.890158
 20
698.015752
 30
0.0
 10
227.932248
 20
699.044715
 30
0.0
  0
SPLINE
  5
1c3
100
AcDbEntity
  8
Layer_1
 62
7
100
AcDbSpline
 70
8
 71
3
 72
8
 73
4
 74
0
 40
0
 40
0
 40
0
 40
0
 40
1
 40
1
 40
1
 40
1
 10
227.932248
 20
699.044715
 30
0.0
 10
225.535980
 20
699.867870
 30
0.0
 10
220.219234
 20
700.176557
 30
0.0
 10
217.186444
 20
699.696386
 30
0.0
  0
LWPOLYLINE
  5
1c4
100
AcDbEntity
  8
Layer_1
 62
7
100
AcDbPolyline
 90
3
 70
0
 10
274.734553
 20
638.199207
 30
0.0
 10
271.551988
 20
638.405002
 30
0.0
 10
267.246181
 20
641.903448
 30
0.0
  0
SPLINE
  5
1c5
100
AcDbEntity
  8
Layer_1
 62
7
100
AcDbSpline
 70
8
 71
3
 72
8
 73
4
 74
0
 40
0
 40
0
 40
0
 40
0
 40
1
 40
1
 40
1
 40
1
 10
2292.730199
 20
372.297988
 30
0.0
 10
2292.442277
 20
372.297988
 30
0.0
 10
2292.182706
 20
372.124548
 30
0.0
 10
2292.072523
 20
371.858543
 30
0.0
  0
SPLINE
  5
1c6
100
AcDbEntity
  8
Layer_1
 62
7
100
AcDbSpline
 70
8
 71
3
 72
8
 73
4
 74
0
 40
0
 40
0
 40
0
 40
0
 40
1
 40
1
 40
1
 40
1
 10
2292.072523
 20
371.858543
 30
0.0
 10
2291.962340
 20
371.592538
 30
0.0
 10
2292.023244
 20
371.286353
 30
0.0
 10
2292.226835
 20
371.082761
 30
0.0
  0
SPLINE
  5
1c7
100
AcDbEntity
  8
Layer_1
 62
7
100
AcDbSpline
 70
8
 71
3
 72
8
 73
4
 74
0
 40
0
 40
0
 40
0
 40
0
 40
1
 40
1
 40
1
 40
1
 10
2292.226835
 20
371.082761
 30
0.0
 10
2292.430427
 20
370.879170
 30
0.0
 10
2292.736612
 20
370.818266
 30
0.0
 10
2293.002617
 20
370.928448
 30
0.0
  0
SPLINE
  5
1c8
100
AcDbEntity
  8
Layer_1
 62
7
100
AcDbSpline
 70
8
 71
3
 72
8
 73
4
 74
0
 40
0
 40
0
 40
0
 40
0
 40
1
 40
1
 40
1
 40
1
 10
2293.002617
 20
370.928448
 30
0.0
 10
2293.268622
 20
371.038631
 30
0.0
 10
2293.442062
 20
371.298203
 30
0.0
 10
2293.442062
 20
371.586124
 30
0.0
  0
SPLINE
  5
1c9
100
AcDbEntity
  8
Layer_1
 62
7
100
AcDbSpline
 70
8
 71
3
 72
8
 73
4
 74
0
 40
0
 40
0
 40
0
 40
0
 40
1
 40
1
 40
1
 40
1
 10
2293.442062
 20
371.586124
 30
0.0
 10
2293.442062
 20
371.774922
 30
0.0
 10
2293.367062
 20
371.955988
 30
0.0
 10
2293.233562
 20
372.089488
 30
0.0
  0
SPLINE
  5
1ca
100
AcDbEntity
  8
Layer_1
 62
7
100
AcDbSpline
 70
8
 71
3
 72
8
 73
4
 74
0
 40
0
 40
0
 40
0
 40
0
 40
1
 40
1
 40
1
 40
1
 10
2293.233562
 20
372.089488
 30
0.0
 10
2293.100062
 20
372.222988
 30
0.0
 10
2292.918997
 20
372.297988
 30
0.0
 10
2292.730199
 20
372.297988
 30
0.0
  0
LWPOLYLINE
  5
1cb
100
AcDbEntity
  8
Layer_1
 62
7
100
AcDbPolyline
 90
2
 70
0
 10
217.186444
 20
699.696386
 30
0.0
 10
217.186699
 20
699.696351
 30
0.0
  0
SPLINE
  5
1cc
100
AcDbEntity
  8
Layer_1
 62
7
100
AcDbSpline
 70
8
 71
3
 72
8
 73
4
 74
0
 40
0
 40
0
 40
0
 40
0
 40
1
 40
1
 40
1
 40
1
 10
2292.730199
 20
372.297988
 30
0.0
 10
2292.442277
 20
372.297988
 30
0.0
 10
2292.182706
 20
372.124548
 30
0.0
 10
2292.072523
 20
371.858543
 30
0.0
  0
SPLINE
  5
1cd
100
AcDbEntity
  8
Layer_1
 62
7
100
AcDbSpline
 70
8
 71
3
 72
8
 73
4
 74
0
 40
0
 40
0
 40
0
 40
0
 40
1
 40
1
 40
1
 40
1
 10
2292.072523
 20
371.858543
 30
0.0
 10
2291.962340
 20
371.592538
 30
0.0
 10
2292.023244
 20
371.286353
 30
0.0
 10
2292.226835
 20
371.082761
 30
0.0
  0
SPLINE
  5
1ce
100
AcDbEntity
  8
Layer_1
 62
7
100
AcDbSpline
 70
8
 71
3
 72
8
 73
4
 74
0
 40
0
 40
0
 40
0
 40
0
 40
1
 40
1
 40
1
 40
1
 10
2292.226835
 20
371.082761
 30
0.0
 10
2292.430427
 20
370.879170
 30
0.0
 10
2292.736612
 20
370.818266
 30
0.0
 10
2293.002617
 20
370.928448
 30
0.0
  0
SPLINE
  5
1cf
100
AcDbEntity
  8
Layer_1
 62
7
100
AcDbSpline
 70
8
 71
3
 72
8
 73
4
 74
0
 40
0
 40
0
 40
0
 40
0
 40
1
 40
1
 40
1
 40
1
 10
2293.002617
 20
370.928448
 30
0.0
 10
2293.268622
 20
371.038631
 30
0.0
 10
2293.442062
 20
371.298203
 30
0.0
 10
2293.442062
 20
371.586124
 30
0.0
  0
SPLINE
  5
1d0
100
AcDbEntity
  8
Layer_1
 62
7
100
AcDbSpline
 70
8
 71
3
 72
8
 73
4
 74
0
 40
0
 40
0
 40
0
 40
0
 40
1
 40
1
 40
1
 40
1
 10
2293.442062
 20
371.586124
 30
0.0
 10
2293.442062
 20
371.774922
 30
0.0
 10
2293.367062
 20
371.955988
 30
0.0
 10
2293.233562
 20
372.089488
 30
0.0
  0
SPLINE
  5
1d1
100
AcDbEntity
  8
Layer_1
 62
7
100
AcDbSpline
 70
8
 71
3
 72
8
 73
4
 74
0
 40
0
 40
0
 40
0
 40
0
 40
1
 40
1
 40
1
 40
1
 10
2293.233562
 20
372.089488
 30
0.0
 10
2293.100062
 20
372.222988
 30
0.0
 10
2292.918997
 20
372.297988
 30
0.0
 10
2292.730199
 20
372.297988
 30
0.0
  0
LWPOLYLINE
  5
1d2
100
AcDbEntity
  8
Layer_1
 62
7
100
AcDbPolyline
 90
2
 70
1
 10
2292.730199
 20
372.297988
 30
0.0
 10
2292.730199
 20
372.297988
 30
0.0
  0
LWPOLYLINE
  5
1d3
100
AcDbEntity
  8
Layer_1
 62
7
100
AcDbPolyline
 90
4
 70
1
 10
267.217978
 20
467.784631
 30
0.0
 10
1961.379862
 20
467.784631
 30
0.0
 10
1961.379862
 20
451.751717
 30
0.0
 10
267.217978
 20
451.751717
 30
0.0
  0
LWPOLYLINE
  5
1d4
100
AcDbEntity
  8
Layer_1
 62
7
100
AcDbPolyline
 90
4
 70
1
 10
1923.969278
 20
451.751718
 30
0.0
 10
1961.379774
 20
451.751718
 30
0.0
 10
1961.379774
 20
-1445.495859
 30
0.0
 10
1923.969278
 20
-1445.495859
 30
0.0
  0
LWPOLYLINE
  5
1d5
100
AcDbEntity
  8
Layer_1
 62
7
100
AcDbPolyline
 90
4
 70
1
 10
197.741300
 20
-1392.052330
 30
0.0
 10
1961.379840
 20
-1392.052330
 30
0.0
 10
1961.379840
 20
-1445.495924
 30
0.0
 10
197.741300
 20
-1445.495924
 30
0.0
  0
LWPOLYLINE
  5
1d6
100
AcDbEntity
  8
Layer_1
 62
7
100
AcDbPolyline
 90
4
 70
1
 10
197.741300
 20
-82.684355
 30
0.0
 10
293.939766
 20
-82.684355
 30
0.0
 10
293.939766
 20
-1408.085425
 30
0.0
 10
197.741300
 20
-1408.085425
 30
0.0
  0
ENDSEC
  0
SECTION
  2
OBJECTS
  0
DICTIONARY
  5
C
330
0
100
AcDbDictionary
  3
ACAD_GROUP
350
D
  3
ACAD_MLINESTYLE
350
17
  0
DICTIONARY
  5
D
330
C
100
AcDbDictionary
  0
DICTIONARY
  5
1A
330
C
100
AcDbDictionary
  0
DICTIONARY
  5
17
330
C
100
AcDbDictionary
  3
STANDARD
350
18
  0
DICTIONARY
  5
19
330
C
100
AcDbDictionary
  0
ENDSEC
  0
EOF
